<svg xmlns="http://www.w3.org/2000/svg" xmlns:xlink="http://www.w3.org/1999/xlink" width="192" zoomAndPan="magnify" viewBox="0 0 144 143.999998" height="192" preserveAspectRatio="xMidYMid meet" version="1.0"><defs><g/><clipPath id="bde3caac4c"><path d="M 72 0 C 32.234375 0 0 32.234375 0 72 C 0 111.765625 32.234375 144 72 144 C 111.765625 144 144 111.765625 144 72 C 144 32.234375 111.765625 0 72 0 " clip-rule="nonzero"/></clipPath></defs><g clip-path="url(#bde3caac4c)"><rect x="-14.4" width="172.8" fill="#f0d2c9" y="-14.4" height="172.799997" fill-opacity="1"/><path stroke-linecap="butt" transform="matrix(0.75, 0, 0, 0.75, 0.00000125, 0.0000312969)" fill="none" stroke-linejoin="miter" d="M 96.000004 -0.0000417292 C 42.979168 -0.0000417292 -0.00000166667 42.979127 -0.00000166667 95.999964 C -0.00000166667 149.0208 42.979168 191.99997 96.000004 191.99997 C 149.02084 191.99997 192.00001 149.0208 192.00001 95.999964 C 192.00001 42.979127 149.02084 -0.0000417292 96.000004 -0.0000417292 " stroke="#000000" stroke-width="2" stroke-opacity="1" stroke-miterlimit="4"/></g><g fill="#000000" fill-opacity="1"><g transform="translate(9.814501, 81.42564)"><g><path d="M 10.421875 -2.3125 C 10.753906 -2.125 10.921875 -1.820312 10.921875 -1.40625 C 10.921875 -1.050781 10.789062 -0.726562 10.53125 -0.4375 C 10.28125 -0.144531 10.023438 0 9.765625 0 C 9.617188 0 9.441406 -0.046875 9.234375 -0.140625 C 9.035156 -0.242188 8.832031 -0.359375 8.625 -0.484375 L 1.125 -4.890625 C 0.945312 -4.992188 0.8125 -5.140625 0.71875 -5.328125 C 0.625 -5.523438 0.578125 -5.734375 0.578125 -5.953125 C 0.578125 -6.179688 0.625 -6.382812 0.71875 -6.5625 C 0.8125 -6.75 0.945312 -6.894531 1.125 -7 L 8.625 -11.3125 C 9.0625 -11.570312 9.414062 -11.703125 9.6875 -11.703125 C 9.988281 -11.703125 10.273438 -11.550781 10.546875 -11.25 C 10.816406 -10.957031 10.953125 -10.648438 10.953125 -10.328125 C 10.953125 -9.972656 10.78125 -9.695312 10.4375 -9.5 L 4.3125 -5.953125 Z M 10.421875 -2.3125 "/></g></g></g><g fill="#000000" fill-opacity="1"><g transform="translate(21.910488, 81.42564)"><g><path d="M 6.875 -12.5625 C 8.175781 -12.5625 9.222656 -12.359375 10.015625 -11.953125 C 10.816406 -11.546875 11.21875 -11.003906 11.21875 -10.328125 C 11.21875 -9.984375 11.117188 -9.6875 10.921875 -9.4375 C 10.722656 -9.1875 10.460938 -9.0625 10.140625 -9.0625 C 9.890625 -9.0625 9.6875 -9.09375 9.53125 -9.15625 C 9.382812 -9.226562 9.238281 -9.320312 9.09375 -9.4375 C 8.945312 -9.550781 8.804688 -9.644531 8.671875 -9.71875 C 8.515625 -9.800781 8.285156 -9.875 7.984375 -9.9375 C 7.679688 -10 7.441406 -10.03125 7.265625 -10.03125 C 6.109375 -10.03125 5.203125 -9.671875 4.546875 -8.953125 C 3.898438 -8.234375 3.578125 -7.300781 3.578125 -6.15625 C 3.578125 -5.050781 3.90625 -4.132812 4.5625 -3.40625 C 5.21875 -2.675781 6.0625 -2.3125 7.09375 -2.3125 C 7.851562 -2.3125 8.414062 -2.398438 8.78125 -2.578125 C 8.875 -2.628906 9 -2.710938 9.15625 -2.828125 C 9.320312 -2.941406 9.472656 -3.03125 9.609375 -3.09375 C 9.742188 -3.15625 9.914062 -3.1875 10.125 -3.1875 C 10.5 -3.1875 10.796875 -3.0625 11.015625 -2.8125 C 11.242188 -2.5625 11.359375 -2.242188 11.359375 -1.859375 C 11.359375 -1.492188 11.144531 -1.148438 10.71875 -0.828125 C 10.289062 -0.503906 9.722656 -0.242188 9.015625 -0.046875 C 8.304688 0.140625 7.550781 0.234375 6.75 0.234375 C 5.570312 0.234375 4.53125 -0.0390625 3.625 -0.59375 C 2.726562 -1.144531 2.035156 -1.910156 1.546875 -2.890625 C 1.054688 -3.867188 0.8125 -4.957031 0.8125 -6.15625 C 0.8125 -7.394531 1.066406 -8.5 1.578125 -9.46875 C 2.085938 -10.4375 2.800781 -11.191406 3.71875 -11.734375 C 4.644531 -12.285156 5.695312 -12.5625 6.875 -12.5625 Z M 6.875 -12.5625 "/></g></g></g><g fill="#000000" fill-opacity="1"><g transform="translate(33.776078, 81.42564)"><g><path d="M 13.34375 -6.15625 C 13.34375 -4.925781 13.066406 -3.820312 12.515625 -2.84375 C 11.960938 -1.875 11.203125 -1.117188 10.234375 -0.578125 C 9.273438 -0.0351562 8.222656 0.234375 7.078125 0.234375 C 5.910156 0.234375 4.847656 -0.0351562 3.890625 -0.578125 C 2.941406 -1.117188 2.191406 -1.875 1.640625 -2.84375 C 1.085938 -3.820312 0.8125 -4.925781 0.8125 -6.15625 C 0.8125 -7.382812 1.085938 -8.484375 1.640625 -9.453125 C 2.191406 -10.429688 2.941406 -11.191406 3.890625 -11.734375 C 4.847656 -12.285156 5.910156 -12.5625 7.078125 -12.5625 C 8.222656 -12.5625 9.273438 -12.285156 10.234375 -11.734375 C 11.203125 -11.191406 11.960938 -10.429688 12.515625 -9.453125 C 13.066406 -8.484375 13.34375 -7.382812 13.34375 -6.15625 Z M 10.578125 -6.15625 C 10.578125 -6.90625 10.421875 -7.578125 10.109375 -8.171875 C 9.796875 -8.765625 9.375 -9.222656 8.84375 -9.546875 C 8.3125 -9.867188 7.722656 -10.03125 7.078125 -10.03125 C 6.429688 -10.03125 5.84375 -9.867188 5.3125 -9.546875 C 4.78125 -9.222656 4.359375 -8.765625 4.046875 -8.171875 C 3.734375 -7.578125 3.578125 -6.90625 3.578125 -6.15625 C 3.578125 -5.40625 3.734375 -4.734375 4.046875 -4.140625 C 4.359375 -3.554688 4.78125 -3.101562 5.3125 -2.78125 C 5.84375 -2.46875 6.429688 -2.3125 7.078125 -2.3125 C 7.722656 -2.3125 8.3125 -2.46875 8.84375 -2.78125 C 9.375 -3.101562 9.796875 -3.554688 10.109375 -4.140625 C 10.421875 -4.734375 10.578125 -5.40625 10.578125 -6.15625 Z M 10.578125 -6.15625 "/></g></g></g><g fill="#000000" fill-opacity="1"><g transform="translate(47.922623, 81.42564)"><g><path d="M 8.09375 -12.5625 C 9.65625 -12.5625 10.734375 -12.09375 11.328125 -11.15625 C 11.929688 -10.226562 12.234375 -8.945312 12.234375 -7.3125 L 12.234375 -1.40625 C 12.234375 -1.007812 12.101562 -0.675781 11.84375 -0.40625 C 11.582031 -0.132812 11.253906 0 10.859375 0 C 10.453125 0 10.117188 -0.132812 9.859375 -0.40625 C 9.597656 -0.675781 9.46875 -1.007812 9.46875 -1.40625 L 9.46875 -7.3125 C 9.46875 -8.15625 9.289062 -8.816406 8.9375 -9.296875 C 8.582031 -9.785156 7.976562 -10.03125 7.125 -10.03125 C 6.226562 -10.03125 5.523438 -9.769531 5.015625 -9.25 C 4.515625 -8.738281 4.265625 -8.09375 4.265625 -7.3125 L 4.265625 -1.40625 C 4.265625 -1.007812 4.132812 -0.675781 3.875 -0.40625 C 3.613281 -0.132812 3.28125 0 2.875 0 C 2.476562 0 2.148438 -0.132812 1.890625 -0.40625 C 1.628906 -0.675781 1.5 -1.007812 1.5 -1.40625 L 1.5 -10.921875 C 1.5 -11.328125 1.628906 -11.660156 1.890625 -11.921875 C 2.148438 -12.191406 2.476562 -12.328125 2.875 -12.328125 C 3.28125 -12.328125 3.613281 -12.191406 3.875 -11.921875 C 4.132812 -11.660156 4.265625 -11.328125 4.265625 -10.921875 L 4.265625 -10.53125 C 4.679688 -11.082031 5.222656 -11.554688 5.890625 -11.953125 C 6.554688 -12.359375 7.289062 -12.5625 8.09375 -12.5625 Z M 8.09375 -12.5625 "/></g></g></g><g fill="#000000" fill-opacity="1"><g transform="translate(61.654452, 81.42564)"><g><path d="M 7.4375 -2.609375 C 7.65625 -2.609375 7.851562 -2.503906 8.03125 -2.296875 C 8.207031 -2.085938 8.296875 -1.8125 8.296875 -1.46875 C 8.296875 -1.0625 8.066406 -0.710938 7.609375 -0.421875 C 7.160156 -0.140625 6.648438 0 6.078125 0 C 5.128906 0 4.328125 -0.203125 3.671875 -0.609375 C 3.023438 -1.015625 2.703125 -1.878906 2.703125 -3.203125 L 2.703125 -9.5625 L 1.640625 -9.5625 C 1.265625 -9.5625 0.953125 -9.679688 0.703125 -9.921875 C 0.460938 -10.171875 0.34375 -10.484375 0.34375 -10.859375 C 0.34375 -11.210938 0.460938 -11.503906 0.703125 -11.734375 C 0.953125 -11.972656 1.265625 -12.09375 1.640625 -12.09375 L 2.703125 -12.09375 L 2.703125 -13.578125 C 2.703125 -13.972656 2.832031 -14.304688 3.09375 -14.578125 C 3.363281 -14.847656 3.703125 -14.984375 4.109375 -14.984375 C 4.484375 -14.984375 4.800781 -14.847656 5.0625 -14.578125 C 5.332031 -14.304688 5.46875 -13.972656 5.46875 -13.578125 L 5.46875 -12.09375 L 7.09375 -12.09375 C 7.46875 -12.09375 7.773438 -11.96875 8.015625 -11.71875 C 8.265625 -11.476562 8.390625 -11.175781 8.390625 -10.8125 C 8.390625 -10.457031 8.265625 -10.160156 8.015625 -9.921875 C 7.773438 -9.679688 7.46875 -9.5625 7.09375 -9.5625 L 5.46875 -9.5625 L 5.46875 -3.3125 C 5.46875 -2.988281 5.550781 -2.753906 5.71875 -2.609375 C 5.882812 -2.460938 6.113281 -2.390625 6.40625 -2.390625 C 6.53125 -2.390625 6.703125 -2.421875 6.921875 -2.484375 C 7.097656 -2.566406 7.269531 -2.609375 7.4375 -2.609375 Z M 7.4375 -2.609375 "/></g></g></g><g fill="#000000" fill-opacity="1"><g transform="translate(71.077803, 81.42564)"><g><path d="M 11.484375 -12.5625 C 11.878906 -12.5625 12.207031 -12.429688 12.46875 -12.171875 C 12.726562 -11.910156 12.859375 -11.570312 12.859375 -11.15625 L 12.859375 -1.40625 C 12.859375 -1.007812 12.726562 -0.675781 12.46875 -0.40625 C 12.207031 -0.132812 11.878906 0 11.484375 0 C 11.078125 0 10.75 -0.128906 10.5 -0.390625 C 10.25 -0.648438 10.113281 -0.984375 10.09375 -1.390625 C 9.707031 -0.941406 9.1875 -0.554688 8.53125 -0.234375 C 7.882812 0.078125 7.195312 0.234375 6.46875 0.234375 C 5.414062 0.234375 4.457031 -0.0351562 3.59375 -0.578125 C 2.738281 -1.128906 2.0625 -1.890625 1.5625 -2.859375 C 1.0625 -3.828125 0.8125 -4.925781 0.8125 -6.15625 C 0.8125 -7.382812 1.054688 -8.484375 1.546875 -9.453125 C 2.035156 -10.429688 2.707031 -11.191406 3.5625 -11.734375 C 4.414062 -12.285156 5.359375 -12.5625 6.390625 -12.5625 C 7.117188 -12.5625 7.804688 -12.425781 8.453125 -12.15625 C 9.097656 -11.882812 9.644531 -11.539062 10.09375 -11.125 L 10.09375 -11.15625 C 10.09375 -11.550781 10.222656 -11.882812 10.484375 -12.15625 C 10.742188 -12.425781 11.078125 -12.5625 11.484375 -12.5625 Z M 6.828125 -2.3125 C 7.816406 -2.3125 8.625 -2.675781 9.25 -3.40625 C 9.882812 -4.132812 10.203125 -5.050781 10.203125 -6.15625 C 10.203125 -7.257812 9.882812 -8.179688 9.25 -8.921875 C 8.625 -9.660156 7.816406 -10.03125 6.828125 -10.03125 C 5.835938 -10.03125 5.023438 -9.660156 4.390625 -8.921875 C 3.765625 -8.179688 3.453125 -7.257812 3.453125 -6.15625 C 3.453125 -5.050781 3.765625 -4.132812 4.390625 -3.40625 C 5.015625 -2.675781 5.828125 -2.3125 6.828125 -2.3125 Z M 6.828125 -2.3125 "/></g></g></g><g fill="#000000" fill-opacity="1"><g transform="translate(85.431709, 81.42564)"><g><path d="M 7.4375 -2.609375 C 7.65625 -2.609375 7.851562 -2.503906 8.03125 -2.296875 C 8.207031 -2.085938 8.296875 -1.8125 8.296875 -1.46875 C 8.296875 -1.0625 8.066406 -0.710938 7.609375 -0.421875 C 7.160156 -0.140625 6.648438 0 6.078125 0 C 5.128906 0 4.328125 -0.203125 3.671875 -0.609375 C 3.023438 -1.015625 2.703125 -1.878906 2.703125 -3.203125 L 2.703125 -9.5625 L 1.640625 -9.5625 C 1.265625 -9.5625 0.953125 -9.679688 0.703125 -9.921875 C 0.460938 -10.171875 0.34375 -10.484375 0.34375 -10.859375 C 0.34375 -11.210938 0.460938 -11.503906 0.703125 -11.734375 C 0.953125 -11.972656 1.265625 -12.09375 1.640625 -12.09375 L 2.703125 -12.09375 L 2.703125 -13.578125 C 2.703125 -13.972656 2.832031 -14.304688 3.09375 -14.578125 C 3.363281 -14.847656 3.703125 -14.984375 4.109375 -14.984375 C 4.484375 -14.984375 4.800781 -14.847656 5.0625 -14.578125 C 5.332031 -14.304688 5.46875 -13.972656 5.46875 -13.578125 L 5.46875 -12.09375 L 7.09375 -12.09375 C 7.46875 -12.09375 7.773438 -11.96875 8.015625 -11.71875 C 8.265625 -11.476562 8.390625 -11.175781 8.390625 -10.8125 C 8.390625 -10.457031 8.265625 -10.160156 8.015625 -9.921875 C 7.773438 -9.679688 7.46875 -9.5625 7.09375 -9.5625 L 5.46875 -9.5625 L 5.46875 -3.3125 C 5.46875 -2.988281 5.550781 -2.753906 5.71875 -2.609375 C 5.882812 -2.460938 6.113281 -2.390625 6.40625 -2.390625 C 6.53125 -2.390625 6.703125 -2.421875 6.921875 -2.484375 C 7.097656 -2.566406 7.269531 -2.609375 7.4375 -2.609375 Z M 7.4375 -2.609375 "/></g></g></g><g fill="#000000" fill-opacity="1"><g transform="translate(94.85506, 81.42564)"><g><path d="M 13.34375 -6.15625 C 13.34375 -4.925781 13.066406 -3.820312 12.515625 -2.84375 C 11.960938 -1.875 11.203125 -1.117188 10.234375 -0.578125 C 9.273438 -0.0351562 8.222656 0.234375 7.078125 0.234375 C 5.910156 0.234375 4.847656 -0.0351562 3.890625 -0.578125 C 2.941406 -1.117188 2.191406 -1.875 1.640625 -2.84375 C 1.085938 -3.820312 0.8125 -4.925781 0.8125 -6.15625 C 0.8125 -7.382812 1.085938 -8.484375 1.640625 -9.453125 C 2.191406 -10.429688 2.941406 -11.191406 3.890625 -11.734375 C 4.847656 -12.285156 5.910156 -12.5625 7.078125 -12.5625 C 8.222656 -12.5625 9.273438 -12.285156 10.234375 -11.734375 C 11.203125 -11.191406 11.960938 -10.429688 12.515625 -9.453125 C 13.066406 -8.484375 13.34375 -7.382812 13.34375 -6.15625 Z M 10.578125 -6.15625 C 10.578125 -6.90625 10.421875 -7.578125 10.109375 -8.171875 C 9.796875 -8.765625 9.375 -9.222656 8.84375 -9.546875 C 8.3125 -9.867188 7.722656 -10.03125 7.078125 -10.03125 C 6.429688 -10.03125 5.84375 -9.867188 5.3125 -9.546875 C 4.78125 -9.222656 4.359375 -8.765625 4.046875 -8.171875 C 3.734375 -7.578125 3.578125 -6.90625 3.578125 -6.15625 C 3.578125 -5.40625 3.734375 -4.734375 4.046875 -4.140625 C 4.359375 -3.554688 4.78125 -3.101562 5.3125 -2.78125 C 5.84375 -2.46875 6.429688 -2.3125 7.078125 -2.3125 C 7.722656 -2.3125 8.3125 -2.46875 8.84375 -2.78125 C 9.375 -3.101562 9.796875 -3.554688 10.109375 -4.140625 C 10.421875 -4.734375 10.578125 -5.40625 10.578125 -6.15625 Z M 10.578125 -6.15625 "/></g></g></g><g fill="#000000" fill-opacity="1"><g transform="translate(109.001601, 81.42564)"><g><path d="M 1.9375 3.09375 C 1.644531 3.09375 1.367188 2.976562 1.109375 2.75 C 0.847656 2.53125 0.71875 2.257812 0.71875 1.9375 C 0.71875 1.75 0.765625 1.566406 0.859375 1.390625 L 10.203125 -17.765625 C 10.316406 -17.984375 10.460938 -18.148438 10.640625 -18.265625 C 10.816406 -18.390625 11.007812 -18.453125 11.21875 -18.453125 C 11.507812 -18.453125 11.78125 -18.34375 12.03125 -18.125 C 12.289062 -17.90625 12.421875 -17.632812 12.421875 -17.3125 C 12.421875 -17.125 12.375 -16.9375 12.28125 -16.75 L 2.953125 2.390625 C 2.835938 2.609375 2.691406 2.78125 2.515625 2.90625 C 2.347656 3.03125 2.15625 3.09375 1.9375 3.09375 Z M 1.9375 3.09375 "/></g></g></g><g fill="#000000" fill-opacity="1"><g transform="translate(122.088304, 81.42564)"><g><path d="M 10.96875 -6.828125 C 11.15625 -6.710938 11.296875 -6.554688 11.390625 -6.359375 C 11.484375 -6.171875 11.53125 -5.972656 11.53125 -5.765625 C 11.53125 -5.535156 11.484375 -5.328125 11.390625 -5.140625 C 11.296875 -4.953125 11.15625 -4.804688 10.96875 -4.703125 L 3.484375 -0.390625 C 3.035156 -0.128906 2.679688 0 2.421875 0 C 2.109375 0 1.816406 -0.148438 1.546875 -0.453125 C 1.285156 -0.753906 1.15625 -1.066406 1.15625 -1.390625 C 1.15625 -1.734375 1.320312 -2.007812 1.65625 -2.21875 L 7.796875 -5.765625 L 1.6875 -9.40625 C 1.34375 -9.59375 1.171875 -9.890625 1.171875 -10.296875 C 1.171875 -10.648438 1.296875 -10.972656 1.546875 -11.265625 C 1.804688 -11.554688 2.066406 -11.703125 2.328125 -11.703125 C 2.484375 -11.703125 2.660156 -11.648438 2.859375 -11.546875 C 3.054688 -11.453125 3.265625 -11.34375 3.484375 -11.21875 Z M 10.96875 -6.828125 "/></g></g></g></svg>