<svg xmlns="http://www.w3.org/2000/svg" xmlns:xlink="http://www.w3.org/1999/xlink" width="192" zoomAndPan="magnify" viewBox="0 0 144 143.999998" height="192" preserveAspectRatio="xMidYMid meet" version="1.0"><defs><g/><clipPath id="fa207ef8d8"><path d="M 72 0 C 32.234375 0 0 32.234375 0 72 C 0 111.765625 32.234375 144 72 144 C 111.765625 144 144 111.765625 144 72 C 144 32.234375 111.765625 0 72 0 " clip-rule="nonzero"/></clipPath></defs><g clip-path="url(#fa207ef8d8)"><rect x="-14.4" width="172.8" fill="#f0d2c9" y="-14.4" height="172.799997" fill-opacity="1"/><path stroke-linecap="butt" transform="matrix(0.75, 0, 0, 0.75, 0.00000125, 0.000002)" fill="none" stroke-linejoin="miter" d="M 96.000004 -0.00000266667 C 42.979168 -0.00000266667 -0.00000166667 42.979167 -0.00000166667 96.000003 C -0.00000166667 149.020839 42.979168 192.000009 96.000004 192.000009 C 149.02084 192.000009 192.00001 149.020839 192.00001 96.000003 C 192.00001 42.979167 149.02084 -0.00000266667 96.000004 -0.00000266667 " stroke="#000000" stroke-width="2" stroke-opacity="1" stroke-miterlimit="4"/></g><g fill="#000000" fill-opacity="1"><g transform="translate(4.621501, 81.425612)"><g><path d="M 10.421875 -2.3125 C 10.753906 -2.125 10.921875 -1.820312 10.921875 -1.40625 C 10.921875 -1.050781 10.789062 -0.726562 10.53125 -0.4375 C 10.28125 -0.144531 10.023438 0 9.765625 0 C 9.617188 0 9.441406 -0.046875 9.234375 -0.140625 C 9.035156 -0.242188 8.832031 -0.359375 8.625 -0.484375 L 1.125 -4.890625 C 0.945312 -4.992188 0.8125 -5.140625 0.71875 -5.328125 C 0.625 -5.523438 0.578125 -5.734375 0.578125 -5.953125 C 0.578125 -6.179688 0.625 -6.382812 0.71875 -6.5625 C 0.8125 -6.75 0.945312 -6.894531 1.125 -7 L 8.625 -11.3125 C 9.0625 -11.570312 9.414062 -11.703125 9.6875 -11.703125 C 9.988281 -11.703125 10.273438 -11.550781 10.546875 -11.25 C 10.816406 -10.957031 10.953125 -10.648438 10.953125 -10.328125 C 10.953125 -9.972656 10.78125 -9.695312 10.4375 -9.5 L 4.3125 -5.953125 Z M 10.421875 -2.3125 "/></g></g></g><g fill="#000000" fill-opacity="1"><g transform="translate(16.717488, 81.425612)"><g><path d="M 7.875 -12.5625 C 8.9375 -12.5625 9.894531 -12.285156 10.75 -11.734375 C 11.613281 -11.191406 12.296875 -10.4375 12.796875 -9.46875 C 13.296875 -8.5 13.546875 -7.398438 13.546875 -6.171875 C 13.546875 -4.941406 13.300781 -3.835938 12.8125 -2.859375 C 12.320312 -1.890625 11.648438 -1.128906 10.796875 -0.578125 C 9.941406 -0.0351562 9 0.234375 7.96875 0.234375 C 7.238281 0.234375 6.546875 0.0820312 5.890625 -0.21875 C 5.234375 -0.519531 4.691406 -0.882812 4.265625 -1.3125 L 4.265625 3.203125 C 4.265625 3.597656 4.132812 3.929688 3.875 4.203125 C 3.613281 4.472656 3.28125 4.609375 2.875 4.609375 C 2.476562 4.609375 2.148438 4.476562 1.890625 4.21875 C 1.628906 3.957031 1.5 3.617188 1.5 3.203125 L 1.5 -10.921875 C 1.5 -11.328125 1.628906 -11.660156 1.890625 -11.921875 C 2.148438 -12.191406 2.476562 -12.328125 2.875 -12.328125 C 3.28125 -12.328125 3.613281 -12.191406 3.875 -11.921875 C 4.132812 -11.660156 4.265625 -11.328125 4.265625 -10.921875 L 4.265625 -10.828125 C 4.628906 -11.296875 5.140625 -11.703125 5.796875 -12.046875 C 6.460938 -12.390625 7.15625 -12.5625 7.875 -12.5625 Z M 7.53125 -2.3125 C 8.519531 -2.3125 9.328125 -2.675781 9.953125 -3.40625 C 10.585938 -4.144531 10.90625 -5.066406 10.90625 -6.171875 C 10.90625 -7.285156 10.59375 -8.207031 9.96875 -8.9375 C 9.34375 -9.664062 8.53125 -10.03125 7.53125 -10.03125 C 6.53125 -10.03125 5.71875 -9.664062 5.09375 -8.9375 C 4.46875 -8.207031 4.15625 -7.285156 4.15625 -6.171875 C 4.15625 -5.066406 4.46875 -4.144531 5.09375 -3.40625 C 5.71875 -2.675781 6.53125 -2.3125 7.53125 -2.3125 Z M 7.53125 -2.3125 "/></g></g></g><g fill="#000000" fill-opacity="1"><g transform="translate(31.071393, 81.425612)"><g><path d="M 13.34375 -6.15625 C 13.34375 -4.925781 13.066406 -3.820312 12.515625 -2.84375 C 11.960938 -1.875 11.203125 -1.117188 10.234375 -0.578125 C 9.273438 -0.0351562 8.222656 0.234375 7.078125 0.234375 C 5.910156 0.234375 4.847656 -0.0351562 3.890625 -0.578125 C 2.941406 -1.117188 2.191406 -1.875 1.640625 -2.84375 C 1.085938 -3.820312 0.8125 -4.925781 0.8125 -6.15625 C 0.8125 -7.382812 1.085938 -8.484375 1.640625 -9.453125 C 2.191406 -10.429688 2.941406 -11.191406 3.890625 -11.734375 C 4.847656 -12.285156 5.910156 -12.5625 7.078125 -12.5625 C 8.222656 -12.5625 9.273438 -12.285156 10.234375 -11.734375 C 11.203125 -11.191406 11.960938 -10.429688 12.515625 -9.453125 C 13.066406 -8.484375 13.34375 -7.382812 13.34375 -6.15625 Z M 10.578125 -6.15625 C 10.578125 -6.90625 10.421875 -7.578125 10.109375 -8.171875 C 9.796875 -8.765625 9.375 -9.222656 8.84375 -9.546875 C 8.3125 -9.867188 7.722656 -10.03125 7.078125 -10.03125 C 6.429688 -10.03125 5.84375 -9.867188 5.3125 -9.546875 C 4.78125 -9.222656 4.359375 -8.765625 4.046875 -8.171875 C 3.734375 -7.578125 3.578125 -6.90625 3.578125 -6.15625 C 3.578125 -5.40625 3.734375 -4.734375 4.046875 -4.140625 C 4.359375 -3.554688 4.78125 -3.101562 5.3125 -2.78125 C 5.84375 -2.46875 6.429688 -2.3125 7.078125 -2.3125 C 7.722656 -2.3125 8.3125 -2.46875 8.84375 -2.78125 C 9.375 -3.101562 9.796875 -3.554688 10.109375 -4.140625 C 10.421875 -4.734375 10.578125 -5.40625 10.578125 -6.15625 Z M 10.578125 -6.15625 "/></g></g></g><g fill="#000000" fill-opacity="1"><g transform="translate(45.217938, 81.425612)"><g><path d="M 7.90625 -12.5625 C 8.363281 -12.5625 8.75 -12.429688 9.0625 -12.171875 C 9.382812 -11.910156 9.546875 -11.601562 9.546875 -11.25 C 9.546875 -10.769531 9.421875 -10.410156 9.171875 -10.171875 C 8.921875 -9.929688 8.628906 -9.8125 8.296875 -9.8125 C 8.066406 -9.8125 7.804688 -9.867188 7.515625 -9.984375 C 7.460938 -9.992188 7.351562 -10.019531 7.1875 -10.0625 C 7.03125 -10.113281 6.863281 -10.140625 6.6875 -10.140625 C 6.28125 -10.140625 5.894531 -10.015625 5.53125 -9.765625 C 5.164062 -9.523438 4.863281 -9.15625 4.625 -8.65625 C 4.382812 -8.15625 4.265625 -7.5625 4.265625 -6.875 L 4.265625 -1.40625 C 4.265625 -1.007812 4.132812 -0.675781 3.875 -0.40625 C 3.613281 -0.132812 3.28125 0 2.875 0 C 2.476562 0 2.148438 -0.132812 1.890625 -0.40625 C 1.628906 -0.675781 1.5 -1.007812 1.5 -1.40625 L 1.5 -10.921875 C 1.5 -11.328125 1.628906 -11.660156 1.890625 -11.921875 C 2.148438 -12.191406 2.476562 -12.328125 2.875 -12.328125 C 3.28125 -12.328125 3.613281 -12.191406 3.875 -11.921875 C 4.132812 -11.660156 4.265625 -11.328125 4.265625 -10.921875 L 4.265625 -10.625 C 4.617188 -11.25 5.125 -11.726562 5.78125 -12.0625 C 6.445312 -12.394531 7.15625 -12.5625 7.90625 -12.5625 Z M 7.90625 -12.5625 "/></g></g></g><g fill="#000000" fill-opacity="1"><g transform="translate(55.21729, 81.425612)"><g><path d="M 7.4375 -2.609375 C 7.65625 -2.609375 7.851562 -2.503906 8.03125 -2.296875 C 8.207031 -2.085938 8.296875 -1.8125 8.296875 -1.46875 C 8.296875 -1.0625 8.066406 -0.710938 7.609375 -0.421875 C 7.160156 -0.140625 6.648438 0 6.078125 0 C 5.128906 0 4.328125 -0.203125 3.671875 -0.609375 C 3.023438 -1.015625 2.703125 -1.878906 2.703125 -3.203125 L 2.703125 -9.5625 L 1.640625 -9.5625 C 1.265625 -9.5625 0.953125 -9.679688 0.703125 -9.921875 C 0.460938 -10.171875 0.34375 -10.484375 0.34375 -10.859375 C 0.34375 -11.210938 0.460938 -11.503906 0.703125 -11.734375 C 0.953125 -11.972656 1.265625 -12.09375 1.640625 -12.09375 L 2.703125 -12.09375 L 2.703125 -13.578125 C 2.703125 -13.972656 2.832031 -14.304688 3.09375 -14.578125 C 3.363281 -14.847656 3.703125 -14.984375 4.109375 -14.984375 C 4.484375 -14.984375 4.800781 -14.847656 5.0625 -14.578125 C 5.332031 -14.304688 5.46875 -13.972656 5.46875 -13.578125 L 5.46875 -12.09375 L 7.09375 -12.09375 C 7.46875 -12.09375 7.773438 -11.96875 8.015625 -11.71875 C 8.265625 -11.476562 8.390625 -11.175781 8.390625 -10.8125 C 8.390625 -10.457031 8.265625 -10.160156 8.015625 -9.921875 C 7.773438 -9.679688 7.46875 -9.5625 7.09375 -9.5625 L 5.46875 -9.5625 L 5.46875 -3.3125 C 5.46875 -2.988281 5.550781 -2.753906 5.71875 -2.609375 C 5.882812 -2.460938 6.113281 -2.390625 6.40625 -2.390625 C 6.53125 -2.390625 6.703125 -2.421875 6.921875 -2.484375 C 7.097656 -2.566406 7.269531 -2.609375 7.4375 -2.609375 Z M 7.4375 -2.609375 "/></g></g></g><g fill="#000000" fill-opacity="1"><g transform="translate(64.640641, 81.425612)"><g><path d="M 7.421875 -14.609375 C 6.898438 -14.609375 6.53125 -14.457031 6.3125 -14.15625 C 6.101562 -13.863281 6 -13.539062 6 -13.1875 L 6 -12.09375 L 8.09375 -12.09375 C 8.457031 -12.09375 8.757812 -11.972656 9 -11.734375 C 9.25 -11.503906 9.375 -11.203125 9.375 -10.828125 C 9.375 -10.460938 9.25 -10.160156 9 -9.921875 C 8.757812 -9.679688 8.457031 -9.5625 8.09375 -9.5625 L 6 -9.5625 L 6 -1.40625 C 6 -1.007812 5.863281 -0.675781 5.59375 -0.40625 C 5.332031 -0.132812 5.003906 0 4.609375 0 C 4.210938 0 3.882812 -0.132812 3.625 -0.40625 C 3.363281 -0.675781 3.234375 -1.007812 3.234375 -1.40625 L 3.234375 -9.5625 L 1.984375 -9.5625 C 1.609375 -9.5625 1.296875 -9.679688 1.046875 -9.921875 C 0.804688 -10.160156 0.6875 -10.460938 0.6875 -10.828125 C 0.6875 -11.203125 0.804688 -11.503906 1.046875 -11.734375 C 1.296875 -11.972656 1.609375 -12.09375 1.984375 -12.09375 L 3.234375 -12.09375 L 3.234375 -13.15625 C 3.234375 -14.3125 3.625 -15.25 4.40625 -15.96875 C 5.195312 -16.695312 6.34375 -17.0625 7.84375 -17.0625 C 8.40625 -17.0625 8.894531 -16.941406 9.3125 -16.703125 C 9.738281 -16.472656 9.953125 -16.125 9.953125 -15.65625 C 9.953125 -15.28125 9.84375 -14.976562 9.625 -14.75 C 9.414062 -14.519531 9.15625 -14.40625 8.84375 -14.40625 C 8.769531 -14.40625 8.691406 -14.410156 8.609375 -14.421875 C 8.523438 -14.441406 8.4375 -14.457031 8.34375 -14.46875 C 7.976562 -14.5625 7.671875 -14.609375 7.421875 -14.609375 Z M 7.421875 -14.609375 "/></g></g></g><g fill="#000000" fill-opacity="1"><g transform="translate(74.248313, 81.425612)"><g><path d="M 13.34375 -6.15625 C 13.34375 -4.925781 13.066406 -3.820312 12.515625 -2.84375 C 11.960938 -1.875 11.203125 -1.117188 10.234375 -0.578125 C 9.273438 -0.0351562 8.222656 0.234375 7.078125 0.234375 C 5.910156 0.234375 4.847656 -0.0351562 3.890625 -0.578125 C 2.941406 -1.117188 2.191406 -1.875 1.640625 -2.84375 C 1.085938 -3.820312 0.8125 -4.925781 0.8125 -6.15625 C 0.8125 -7.382812 1.085938 -8.484375 1.640625 -9.453125 C 2.191406 -10.429688 2.941406 -11.191406 3.890625 -11.734375 C 4.847656 -12.285156 5.910156 -12.5625 7.078125 -12.5625 C 8.222656 -12.5625 9.273438 -12.285156 10.234375 -11.734375 C 11.203125 -11.191406 11.960938 -10.429688 12.515625 -9.453125 C 13.066406 -8.484375 13.34375 -7.382812 13.34375 -6.15625 Z M 10.578125 -6.15625 C 10.578125 -6.90625 10.421875 -7.578125 10.109375 -8.171875 C 9.796875 -8.765625 9.375 -9.222656 8.84375 -9.546875 C 8.3125 -9.867188 7.722656 -10.03125 7.078125 -10.03125 C 6.429688 -10.03125 5.84375 -9.867188 5.3125 -9.546875 C 4.78125 -9.222656 4.359375 -8.765625 4.046875 -8.171875 C 3.734375 -7.578125 3.578125 -6.90625 3.578125 -6.15625 C 3.578125 -5.40625 3.734375 -4.734375 4.046875 -4.140625 C 4.359375 -3.554688 4.78125 -3.101562 5.3125 -2.78125 C 5.84375 -2.46875 6.429688 -2.3125 7.078125 -2.3125 C 7.722656 -2.3125 8.3125 -2.46875 8.84375 -2.78125 C 9.375 -3.101562 9.796875 -3.554688 10.109375 -4.140625 C 10.421875 -4.734375 10.578125 -5.40625 10.578125 -6.15625 Z M 7.1875 -13.125 C 7.039062 -13.125 6.878906 -13.191406 6.703125 -13.328125 C 6.523438 -13.460938 6.441406 -13.644531 6.453125 -13.875 C 6.453125 -14.007812 6.5 -14.15625 6.59375 -14.3125 L 7.9375 -16.671875 C 8.082031 -16.941406 8.265625 -17.160156 8.484375 -17.328125 C 8.703125 -17.503906 8.941406 -17.59375 9.203125 -17.59375 C 9.617188 -17.59375 9.925781 -17.484375 10.125 -17.265625 C 10.332031 -17.046875 10.429688 -16.769531 10.421875 -16.4375 C 10.390625 -16.082031 10.242188 -15.753906 9.984375 -15.453125 L 8.234375 -13.515625 C 7.984375 -13.253906 7.632812 -13.125 7.1875 -13.125 Z M 7.1875 -13.125 "/></g></g></g><g fill="#000000" fill-opacity="1"><g transform="translate(88.394853, 81.425612)"><g><path d="M 4.5 -1.40625 C 4.5 -1.007812 4.363281 -0.675781 4.09375 -0.40625 C 3.820312 -0.132812 3.488281 0 3.09375 0 C 2.707031 0 2.382812 -0.132812 2.125 -0.40625 C 1.863281 -0.675781 1.734375 -1.007812 1.734375 -1.40625 L 1.734375 -15.65625 C 1.734375 -16.050781 1.863281 -16.382812 2.125 -16.65625 C 2.394531 -16.925781 2.734375 -17.0625 3.140625 -17.0625 C 3.515625 -17.0625 3.832031 -16.925781 4.09375 -16.65625 C 4.363281 -16.382812 4.5 -16.050781 4.5 -15.65625 Z M 4.5 -1.40625 "/></g></g></g><g fill="#000000" fill-opacity="1"><g transform="translate(94.615646, 81.425612)"><g><path d="M 4.109375 -1.40625 C 4.109375 -1.007812 3.972656 -0.675781 3.703125 -0.40625 C 3.441406 -0.132812 3.113281 0 2.71875 0 C 2.320312 0 1.992188 -0.132812 1.734375 -0.40625 C 1.472656 -0.675781 1.34375 -1.007812 1.34375 -1.40625 L 1.34375 -10.921875 C 1.34375 -11.328125 1.472656 -11.660156 1.734375 -11.921875 C 1.992188 -12.191406 2.320312 -12.328125 2.71875 -12.328125 C 3.113281 -12.328125 3.441406 -12.191406 3.703125 -11.921875 C 3.972656 -11.660156 4.109375 -11.328125 4.109375 -10.921875 Z M 2.703125 -13.828125 C 2.179688 -13.828125 1.8125 -13.910156 1.59375 -14.078125 C 1.375 -14.242188 1.265625 -14.546875 1.265625 -14.984375 L 1.265625 -15.421875 C 1.265625 -15.847656 1.378906 -16.144531 1.609375 -16.3125 C 1.847656 -16.488281 2.21875 -16.578125 2.71875 -16.578125 C 3.257812 -16.578125 3.632812 -16.488281 3.84375 -16.3125 C 4.0625 -16.144531 4.171875 -15.847656 4.171875 -15.421875 L 4.171875 -14.984375 C 4.171875 -14.535156 4.054688 -14.226562 3.828125 -14.0625 C 3.609375 -13.90625 3.234375 -13.828125 2.703125 -13.828125 Z M 2.703125 -13.828125 "/></g></g></g><g fill="#000000" fill-opacity="1"><g transform="translate(100.053088, 81.425612)"><g><path d="M 13.34375 -6.15625 C 13.34375 -4.925781 13.066406 -3.820312 12.515625 -2.84375 C 11.960938 -1.875 11.203125 -1.117188 10.234375 -0.578125 C 9.273438 -0.0351562 8.222656 0.234375 7.078125 0.234375 C 5.910156 0.234375 4.847656 -0.0351562 3.890625 -0.578125 C 2.941406 -1.117188 2.191406 -1.875 1.640625 -2.84375 C 1.085938 -3.820312 0.8125 -4.925781 0.8125 -6.15625 C 0.8125 -7.382812 1.085938 -8.484375 1.640625 -9.453125 C 2.191406 -10.429688 2.941406 -11.191406 3.890625 -11.734375 C 4.847656 -12.285156 5.910156 -12.5625 7.078125 -12.5625 C 8.222656 -12.5625 9.273438 -12.285156 10.234375 -11.734375 C 11.203125 -11.191406 11.960938 -10.429688 12.515625 -9.453125 C 13.066406 -8.484375 13.34375 -7.382812 13.34375 -6.15625 Z M 10.578125 -6.15625 C 10.578125 -6.90625 10.421875 -7.578125 10.109375 -8.171875 C 9.796875 -8.765625 9.375 -9.222656 8.84375 -9.546875 C 8.3125 -9.867188 7.722656 -10.03125 7.078125 -10.03125 C 6.429688 -10.03125 5.84375 -9.867188 5.3125 -9.546875 C 4.78125 -9.222656 4.359375 -8.765625 4.046875 -8.171875 C 3.734375 -7.578125 3.578125 -6.90625 3.578125 -6.15625 C 3.578125 -5.40625 3.734375 -4.734375 4.046875 -4.140625 C 4.359375 -3.554688 4.78125 -3.101562 5.3125 -2.78125 C 5.84375 -2.46875 6.429688 -2.3125 7.078125 -2.3125 C 7.722656 -2.3125 8.3125 -2.46875 8.84375 -2.78125 C 9.375 -3.101562 9.796875 -3.554688 10.109375 -4.140625 C 10.421875 -4.734375 10.578125 -5.40625 10.578125 -6.15625 Z M 10.578125 -6.15625 "/></g></g></g><g fill="#000000" fill-opacity="1"><g transform="translate(114.199628, 81.425612)"><g><path d="M 1.9375 3.09375 C 1.644531 3.09375 1.367188 2.976562 1.109375 2.75 C 0.847656 2.53125 0.71875 2.257812 0.71875 1.9375 C 0.71875 1.75 0.765625 1.566406 0.859375 1.390625 L 10.203125 -17.765625 C 10.316406 -17.984375 10.460938 -18.148438 10.640625 -18.265625 C 10.816406 -18.390625 11.007812 -18.453125 11.21875 -18.453125 C 11.507812 -18.453125 11.78125 -18.34375 12.03125 -18.125 C 12.289062 -17.90625 12.421875 -17.632812 12.421875 -17.3125 C 12.421875 -17.125 12.375 -16.9375 12.28125 -16.75 L 2.953125 2.390625 C 2.835938 2.609375 2.691406 2.78125 2.515625 2.90625 C 2.347656 3.03125 2.15625 3.09375 1.9375 3.09375 Z M 1.9375 3.09375 "/></g></g></g><g fill="#000000" fill-opacity="1"><g transform="translate(127.286331, 81.425612)"><g><path d="M 10.96875 -6.828125 C 11.15625 -6.710938 11.296875 -6.554688 11.390625 -6.359375 C 11.484375 -6.171875 11.53125 -5.972656 11.53125 -5.765625 C 11.53125 -5.535156 11.484375 -5.328125 11.390625 -5.140625 C 11.296875 -4.953125 11.15625 -4.804688 10.96875 -4.703125 L 3.484375 -0.390625 C 3.035156 -0.128906 2.679688 0 2.421875 0 C 2.109375 0 1.816406 -0.148438 1.546875 -0.453125 C 1.285156 -0.753906 1.15625 -1.066406 1.15625 -1.390625 C 1.15625 -1.734375 1.320312 -2.007812 1.65625 -2.21875 L 7.796875 -5.765625 L 1.6875 -9.40625 C 1.34375 -9.59375 1.171875 -9.890625 1.171875 -10.296875 C 1.171875 -10.648438 1.296875 -10.972656 1.546875 -11.265625 C 1.804688 -11.554688 2.066406 -11.703125 2.328125 -11.703125 C 2.484375 -11.703125 2.660156 -11.648438 2.859375 -11.546875 C 3.054688 -11.453125 3.265625 -11.34375 3.484375 -11.21875 Z M 10.96875 -6.828125 "/></g></g></g></svg>