<svg xmlns="http://www.w3.org/2000/svg" xmlns:xlink="http://www.w3.org/1999/xlink" width="192" zoomAndPan="magnify" viewBox="0 0 144 143.999998" height="192" preserveAspectRatio="xMidYMid meet" version="1.0"><defs><g/></defs><g fill="#000000" fill-opacity="1"><g transform="translate(12.096001, 71.633615)"><g><path d="M 10.421875 -2.3125 C 10.753906 -2.125 10.921875 -1.820312 10.921875 -1.40625 C 10.921875 -1.050781 10.789062 -0.726562 10.53125 -0.4375 C 10.28125 -0.144531 10.023438 0 9.765625 0 C 9.617188 0 9.441406 -0.046875 9.234375 -0.140625 C 9.035156 -0.242188 8.832031 -0.359375 8.625 -0.484375 L 1.125 -4.890625 C 0.945312 -4.992188 0.8125 -5.140625 0.71875 -5.328125 C 0.625 -5.523438 0.578125 -5.734375 0.578125 -5.953125 C 0.578125 -6.179688 0.625 -6.382812 0.71875 -6.5625 C 0.8125 -6.75 0.945312 -6.894531 1.125 -7 L 8.625 -11.3125 C 9.0625 -11.570312 9.414062 -11.703125 9.6875 -11.703125 C 9.988281 -11.703125 10.273438 -11.550781 10.546875 -11.25 C 10.816406 -10.957031 10.953125 -10.648438 10.953125 -10.328125 C 10.953125 -9.972656 10.78125 -9.695312 10.4375 -9.5 L 4.3125 -5.953125 Z M 10.421875 -2.3125 "/></g></g></g><g fill="#000000" fill-opacity="1"><g transform="translate(24.191988, 71.633615)"><g><path d="M 11.484375 -12.328125 C 11.878906 -12.328125 12.207031 -12.195312 12.46875 -11.9375 C 12.726562 -11.675781 12.859375 -11.335938 12.859375 -10.921875 L 12.859375 3.203125 C 12.859375 3.597656 12.726562 3.929688 12.46875 4.203125 C 12.207031 4.472656 11.878906 4.609375 11.484375 4.609375 C 11.078125 4.609375 10.742188 4.472656 10.484375 4.203125 C 10.222656 3.929688 10.09375 3.597656 10.09375 3.203125 L 10.09375 -1.359375 C 9.707031 -0.929688 9.1875 -0.554688 8.53125 -0.234375 C 7.882812 0.078125 7.195312 0.234375 6.46875 0.234375 C 5.414062 0.234375 4.457031 -0.0351562 3.59375 -0.578125 C 2.738281 -1.128906 2.0625 -1.890625 1.5625 -2.859375 C 1.0625 -3.828125 0.8125 -4.925781 0.8125 -6.15625 C 0.8125 -7.382812 1.054688 -8.484375 1.546875 -9.453125 C 2.035156 -10.429688 2.707031 -11.191406 3.5625 -11.734375 C 4.414062 -12.285156 5.359375 -12.5625 6.390625 -12.5625 C 7.140625 -12.5625 7.835938 -12.421875 8.484375 -12.140625 C 9.128906 -11.867188 9.664062 -11.523438 10.09375 -11.109375 C 10.132812 -11.460938 10.28125 -11.753906 10.53125 -11.984375 C 10.789062 -12.210938 11.109375 -12.328125 11.484375 -12.328125 Z M 6.828125 -2.3125 C 7.816406 -2.3125 8.625 -2.675781 9.25 -3.40625 C 9.882812 -4.132812 10.203125 -5.050781 10.203125 -6.15625 C 10.203125 -7.257812 9.882812 -8.179688 9.25 -8.921875 C 8.625 -9.660156 7.816406 -10.03125 6.828125 -10.03125 C 5.835938 -10.03125 5.023438 -9.660156 4.390625 -8.921875 C 3.765625 -8.179688 3.453125 -7.257812 3.453125 -6.15625 C 3.453125 -5.050781 3.765625 -4.132812 4.390625 -3.40625 C 5.015625 -2.675781 5.828125 -2.3125 6.828125 -2.3125 Z M 6.828125 -2.3125 "/></g></g></g><g fill="#000000" fill-opacity="1"><g transform="translate(38.545893, 71.633615)"><g><path d="M 10.640625 -12.328125 C 11.046875 -12.328125 11.378906 -12.191406 11.640625 -11.921875 C 11.898438 -11.660156 12.03125 -11.328125 12.03125 -10.921875 L 12.03125 -5.078125 C 12.03125 -3.410156 11.570312 -2.109375 10.65625 -1.171875 C 9.738281 -0.234375 8.4375 0.234375 6.75 0.234375 C 5.0625 0.234375 3.765625 -0.234375 2.859375 -1.171875 C 1.953125 -2.109375 1.5 -3.410156 1.5 -5.078125 L 1.5 -10.921875 C 1.5 -11.328125 1.628906 -11.660156 1.890625 -11.921875 C 2.148438 -12.191406 2.476562 -12.328125 2.875 -12.328125 C 3.28125 -12.328125 3.613281 -12.191406 3.875 -11.921875 C 4.132812 -11.660156 4.265625 -11.328125 4.265625 -10.921875 L 4.265625 -5.078125 C 4.265625 -4.140625 4.472656 -3.441406 4.890625 -2.984375 C 5.304688 -2.535156 5.925781 -2.3125 6.75 -2.3125 C 7.59375 -2.3125 8.222656 -2.535156 8.640625 -2.984375 C 9.054688 -3.441406 9.265625 -4.140625 9.265625 -5.078125 L 9.265625 -10.921875 C 9.265625 -11.328125 9.394531 -11.660156 9.65625 -11.921875 C 9.914062 -12.191406 10.242188 -12.328125 10.640625 -12.328125 Z M 10.640625 -12.328125 "/></g></g></g><g fill="#000000" fill-opacity="1"><g transform="translate(52.070362, 71.633615)"><g><path d="M 12.5625 -6.453125 C 12.539062 -6.085938 12.390625 -5.785156 12.109375 -5.546875 C 11.835938 -5.316406 11.519531 -5.203125 11.15625 -5.203125 L 3.546875 -5.203125 C 3.734375 -4.296875 4.15625 -3.585938 4.8125 -3.078125 C 5.476562 -2.566406 6.222656 -2.3125 7.046875 -2.3125 C 7.679688 -2.3125 8.175781 -2.367188 8.53125 -2.484375 C 8.882812 -2.597656 9.164062 -2.71875 9.375 -2.84375 C 9.582031 -2.976562 9.722656 -3.066406 9.796875 -3.109375 C 10.066406 -3.242188 10.328125 -3.3125 10.578125 -3.3125 C 10.898438 -3.3125 11.175781 -3.195312 11.40625 -2.96875 C 11.632812 -2.738281 11.75 -2.472656 11.75 -2.171875 C 11.75 -1.753906 11.535156 -1.375 11.109375 -1.03125 C 10.679688 -0.675781 10.101562 -0.375 9.375 -0.125 C 8.65625 0.113281 7.925781 0.234375 7.1875 0.234375 C 5.894531 0.234375 4.769531 -0.0351562 3.8125 -0.578125 C 2.851562 -1.117188 2.113281 -1.859375 1.59375 -2.796875 C 1.070312 -3.742188 0.8125 -4.8125 0.8125 -6 C 0.8125 -7.3125 1.085938 -8.46875 1.640625 -9.46875 C 2.191406 -10.46875 2.921875 -11.234375 3.828125 -11.765625 C 4.734375 -12.296875 5.703125 -12.5625 6.734375 -12.5625 C 7.742188 -12.5625 8.695312 -12.285156 9.59375 -11.734375 C 10.5 -11.179688 11.21875 -10.4375 11.75 -9.5 C 12.289062 -8.5625 12.5625 -7.546875 12.5625 -6.453125 Z M 6.734375 -10.03125 C 4.953125 -10.03125 3.898438 -9.191406 3.578125 -7.515625 L 9.609375 -7.515625 L 9.609375 -7.671875 C 9.546875 -8.316406 9.226562 -8.867188 8.65625 -9.328125 C 8.09375 -9.796875 7.453125 -10.03125 6.734375 -10.03125 Z M 6.734375 -10.03125 "/></g></g></g><g fill="#000000" fill-opacity="1"><g transform="translate(65.433551, 71.633615)"><g><path d="M 15.71875 -12.5625 C 17.238281 -12.5625 18.289062 -12.09375 18.875 -11.15625 C 19.457031 -10.226562 19.75 -8.945312 19.75 -7.3125 L 19.75 -1.40625 C 19.75 -1.007812 19.617188 -0.675781 19.359375 -0.40625 C 19.097656 -0.132812 18.769531 0 18.375 0 C 17.96875 0 17.632812 -0.132812 17.375 -0.40625 C 17.113281 -0.675781 16.984375 -1.007812 16.984375 -1.40625 L 16.984375 -7.3125 C 16.984375 -8.15625 16.816406 -8.816406 16.484375 -9.296875 C 16.160156 -9.785156 15.582031 -10.03125 14.75 -10.03125 C 13.882812 -10.03125 13.207031 -9.769531 12.71875 -9.25 C 12.238281 -8.738281 12 -8.09375 12 -7.3125 L 12 -1.40625 C 12 -1.007812 11.867188 -0.675781 11.609375 -0.40625 C 11.347656 -0.132812 11.019531 0 10.625 0 C 10.226562 0 9.894531 -0.132812 9.625 -0.40625 C 9.363281 -0.675781 9.234375 -1.007812 9.234375 -1.40625 L 9.234375 -7.3125 C 9.234375 -8.15625 9.066406 -8.816406 8.734375 -9.296875 C 8.410156 -9.785156 7.832031 -10.03125 7 -10.03125 C 6.144531 -10.03125 5.472656 -9.769531 4.984375 -9.25 C 4.503906 -8.738281 4.265625 -8.09375 4.265625 -7.3125 L 4.265625 -1.40625 C 4.265625 -1.007812 4.132812 -0.675781 3.875 -0.40625 C 3.613281 -0.132812 3.28125 0 2.875 0 C 2.476562 0 2.148438 -0.132812 1.890625 -0.40625 C 1.628906 -0.675781 1.5 -1.007812 1.5 -1.40625 L 1.5 -10.921875 C 1.5 -11.328125 1.628906 -11.660156 1.890625 -11.921875 C 2.148438 -12.191406 2.476562 -12.328125 2.875 -12.328125 C 3.28125 -12.328125 3.613281 -12.191406 3.875 -11.921875 C 4.132812 -11.660156 4.265625 -11.328125 4.265625 -10.921875 L 4.265625 -10.5625 C 4.679688 -11.113281 5.207031 -11.582031 5.84375 -11.96875 C 6.476562 -12.363281 7.1875 -12.5625 7.96875 -12.5625 C 9.90625 -12.5625 11.144531 -11.71875 11.6875 -10.03125 C 12.039062 -10.675781 12.570312 -11.257812 13.28125 -11.78125 C 14 -12.300781 14.8125 -12.5625 15.71875 -12.5625 Z M 15.71875 -12.5625 "/></g></g></g><g fill="#000000" fill-opacity="1"><g transform="translate(86.676416, 71.633615)"><g/></g></g><g fill="#000000" fill-opacity="1"><g transform="translate(93.127605, 71.633615)"><g><path d="M 0.78125 -1.90625 C 0.644531 -2.09375 0.578125 -2.328125 0.578125 -2.609375 C 0.578125 -3.003906 0.773438 -3.34375 1.171875 -3.625 C 1.390625 -3.757812 1.613281 -3.828125 1.84375 -3.828125 C 2.164062 -3.828125 2.472656 -3.679688 2.765625 -3.390625 C 3.222656 -2.910156 3.703125 -2.554688 4.203125 -2.328125 C 4.703125 -2.097656 5.304688 -1.984375 6.015625 -1.984375 C 7.210938 -2.023438 7.8125 -2.476562 7.8125 -3.34375 C 7.8125 -3.789062 7.609375 -4.128906 7.203125 -4.359375 C 6.796875 -4.585938 6.160156 -4.816406 5.296875 -5.046875 C 4.410156 -5.296875 3.6875 -5.539062 3.125 -5.78125 C 2.5625 -6.03125 2.078125 -6.40625 1.671875 -6.90625 C 1.265625 -7.40625 1.0625 -8.078125 1.0625 -8.921875 C 1.0625 -9.660156 1.269531 -10.300781 1.6875 -10.84375 C 2.113281 -11.382812 2.664062 -11.804688 3.34375 -12.109375 C 4.03125 -12.410156 4.757812 -12.5625 5.53125 -12.5625 C 6.3125 -12.5625 7.09375 -12.414062 7.875 -12.125 C 8.664062 -11.832031 9.28125 -11.398438 9.71875 -10.828125 C 9.925781 -10.585938 10.03125 -10.3125 10.03125 -10 C 10.03125 -9.644531 9.882812 -9.351562 9.59375 -9.125 C 9.375 -8.957031 9.125 -8.875 8.84375 -8.875 C 8.507812 -8.875 8.234375 -8.984375 8.015625 -9.203125 C 7.742188 -9.535156 7.390625 -9.800781 6.953125 -10 C 6.515625 -10.195312 6.019531 -10.296875 5.46875 -10.296875 C 4.289062 -10.296875 3.703125 -9.875 3.703125 -9.03125 C 3.703125 -8.695312 3.8125 -8.425781 4.03125 -8.21875 C 4.25 -8.007812 4.519531 -7.847656 4.84375 -7.734375 C 5.175781 -7.617188 5.644531 -7.476562 6.25 -7.3125 C 7.070312 -7.070312 7.757812 -6.828125 8.3125 -6.578125 C 8.875 -6.335938 9.34375 -5.960938 9.71875 -5.453125 C 10.101562 -4.953125 10.296875 -4.285156 10.296875 -3.453125 C 10.296875 -2.703125 10.070312 -2.046875 9.625 -1.484375 C 9.1875 -0.921875 8.617188 -0.492188 7.921875 -0.203125 C 7.222656 0.0859375 6.503906 0.234375 5.765625 0.234375 C 4.742188 0.234375 3.796875 0.0664062 2.921875 -0.265625 C 2.046875 -0.609375 1.332031 -1.15625 0.78125 -1.90625 Z M 0.78125 -1.90625 "/></g></g></g><g fill="#000000" fill-opacity="1"><g transform="translate(104.232875, 71.633615)"><g><path d="M 13.34375 -6.15625 C 13.34375 -4.925781 13.066406 -3.820312 12.515625 -2.84375 C 11.960938 -1.875 11.203125 -1.117188 10.234375 -0.578125 C 9.273438 -0.0351562 8.222656 0.234375 7.078125 0.234375 C 5.910156 0.234375 4.847656 -0.0351562 3.890625 -0.578125 C 2.941406 -1.117188 2.191406 -1.875 1.640625 -2.84375 C 1.085938 -3.820312 0.8125 -4.925781 0.8125 -6.15625 C 0.8125 -7.382812 1.085938 -8.484375 1.640625 -9.453125 C 2.191406 -10.429688 2.941406 -11.191406 3.890625 -11.734375 C 4.847656 -12.285156 5.910156 -12.5625 7.078125 -12.5625 C 8.222656 -12.5625 9.273438 -12.285156 10.234375 -11.734375 C 11.203125 -11.191406 11.960938 -10.429688 12.515625 -9.453125 C 13.066406 -8.484375 13.34375 -7.382812 13.34375 -6.15625 Z M 10.578125 -6.15625 C 10.578125 -6.90625 10.421875 -7.578125 10.109375 -8.171875 C 9.796875 -8.765625 9.375 -9.222656 8.84375 -9.546875 C 8.3125 -9.867188 7.722656 -10.03125 7.078125 -10.03125 C 6.429688 -10.03125 5.84375 -9.867188 5.3125 -9.546875 C 4.78125 -9.222656 4.359375 -8.765625 4.046875 -8.171875 C 3.734375 -7.578125 3.578125 -6.90625 3.578125 -6.15625 C 3.578125 -5.40625 3.734375 -4.734375 4.046875 -4.140625 C 4.359375 -3.554688 4.78125 -3.101562 5.3125 -2.78125 C 5.84375 -2.46875 6.429688 -2.3125 7.078125 -2.3125 C 7.722656 -2.3125 8.3125 -2.46875 8.84375 -2.78125 C 9.375 -3.101562 9.796875 -3.554688 10.109375 -4.140625 C 10.421875 -4.734375 10.578125 -5.40625 10.578125 -6.15625 Z M 10.578125 -6.15625 "/></g></g></g><g fill="#000000" fill-opacity="1"><g transform="translate(118.379425, 71.633615)"><g><path d="M 10.640625 -12.328125 C 11.046875 -12.328125 11.378906 -12.191406 11.640625 -11.921875 C 11.898438 -11.660156 12.03125 -11.328125 12.03125 -10.921875 L 12.03125 -5.078125 C 12.03125 -3.410156 11.570312 -2.109375 10.65625 -1.171875 C 9.738281 -0.234375 8.4375 0.234375 6.75 0.234375 C 5.0625 0.234375 3.765625 -0.234375 2.859375 -1.171875 C 1.953125 -2.109375 1.5 -3.410156 1.5 -5.078125 L 1.5 -10.921875 C 1.5 -11.328125 1.628906 -11.660156 1.890625 -11.921875 C 2.148438 -12.191406 2.476562 -12.328125 2.875 -12.328125 C 3.28125 -12.328125 3.613281 -12.191406 3.875 -11.921875 C 4.132812 -11.660156 4.265625 -11.328125 4.265625 -10.921875 L 4.265625 -5.078125 C 4.265625 -4.140625 4.472656 -3.441406 4.890625 -2.984375 C 5.304688 -2.535156 5.925781 -2.3125 6.75 -2.3125 C 7.59375 -2.3125 8.222656 -2.535156 8.640625 -2.984375 C 9.054688 -3.441406 9.265625 -4.140625 9.265625 -5.078125 L 9.265625 -10.921875 C 9.265625 -11.328125 9.394531 -11.660156 9.65625 -11.921875 C 9.914062 -12.191406 10.242188 -12.328125 10.640625 -12.328125 Z M 10.640625 -12.328125 "/></g></g></g><g fill="#000000" fill-opacity="1"><g transform="translate(39.892501, 91.217614)"><g><path d="M 12.5625 -6.453125 C 12.539062 -6.085938 12.390625 -5.785156 12.109375 -5.546875 C 11.835938 -5.316406 11.519531 -5.203125 11.15625 -5.203125 L 3.546875 -5.203125 C 3.734375 -4.296875 4.15625 -3.585938 4.8125 -3.078125 C 5.476562 -2.566406 6.222656 -2.3125 7.046875 -2.3125 C 7.679688 -2.3125 8.175781 -2.367188 8.53125 -2.484375 C 8.882812 -2.597656 9.164062 -2.71875 9.375 -2.84375 C 9.582031 -2.976562 9.722656 -3.066406 9.796875 -3.109375 C 10.066406 -3.242188 10.328125 -3.3125 10.578125 -3.3125 C 10.898438 -3.3125 11.175781 -3.195312 11.40625 -2.96875 C 11.632812 -2.738281 11.75 -2.472656 11.75 -2.171875 C 11.75 -1.753906 11.535156 -1.375 11.109375 -1.03125 C 10.679688 -0.675781 10.101562 -0.375 9.375 -0.125 C 8.65625 0.113281 7.925781 0.234375 7.1875 0.234375 C 5.894531 0.234375 4.769531 -0.0351562 3.8125 -0.578125 C 2.851562 -1.117188 2.113281 -1.859375 1.59375 -2.796875 C 1.070312 -3.742188 0.8125 -4.8125 0.8125 -6 C 0.8125 -7.3125 1.085938 -8.46875 1.640625 -9.46875 C 2.191406 -10.46875 2.921875 -11.234375 3.828125 -11.765625 C 4.734375 -12.296875 5.703125 -12.5625 6.734375 -12.5625 C 7.742188 -12.5625 8.695312 -12.285156 9.59375 -11.734375 C 10.5 -11.179688 11.21875 -10.4375 11.75 -9.5 C 12.289062 -8.5625 12.5625 -7.546875 12.5625 -6.453125 Z M 6.734375 -10.03125 C 4.953125 -10.03125 3.898438 -9.191406 3.578125 -7.515625 L 9.609375 -7.515625 L 9.609375 -7.671875 C 9.546875 -8.316406 9.226562 -8.867188 8.65625 -9.328125 C 8.09375 -9.796875 7.453125 -10.03125 6.734375 -10.03125 Z M 6.734375 -10.03125 "/></g></g></g><g fill="#000000" fill-opacity="1"><g transform="translate(53.25569, 91.217614)"><g><path d="M 10.640625 -12.328125 C 11.046875 -12.328125 11.378906 -12.191406 11.640625 -11.921875 C 11.898438 -11.660156 12.03125 -11.328125 12.03125 -10.921875 L 12.03125 -5.078125 C 12.03125 -3.410156 11.570312 -2.109375 10.65625 -1.171875 C 9.738281 -0.234375 8.4375 0.234375 6.75 0.234375 C 5.0625 0.234375 3.765625 -0.234375 2.859375 -1.171875 C 1.953125 -2.109375 1.5 -3.410156 1.5 -5.078125 L 1.5 -10.921875 C 1.5 -11.328125 1.628906 -11.660156 1.890625 -11.921875 C 2.148438 -12.191406 2.476562 -12.328125 2.875 -12.328125 C 3.28125 -12.328125 3.613281 -12.191406 3.875 -11.921875 C 4.132812 -11.660156 4.265625 -11.328125 4.265625 -10.921875 L 4.265625 -5.078125 C 4.265625 -4.140625 4.472656 -3.441406 4.890625 -2.984375 C 5.304688 -2.535156 5.925781 -2.3125 6.75 -2.3125 C 7.59375 -2.3125 8.222656 -2.535156 8.640625 -2.984375 C 9.054688 -3.441406 9.265625 -4.140625 9.265625 -5.078125 L 9.265625 -10.921875 C 9.265625 -11.328125 9.394531 -11.660156 9.65625 -11.921875 C 9.914062 -12.191406 10.242188 -12.328125 10.640625 -12.328125 Z M 10.640625 -12.328125 "/></g></g></g><g fill="#000000" fill-opacity="1"><g transform="translate(66.780158, 91.217614)"><g><path d="M 3.59375 -7.28125 C 3.59375 -7.675781 3.722656 -8.007812 3.984375 -8.28125 C 4.242188 -8.550781 4.578125 -8.6875 4.984375 -8.6875 C 5.992188 -8.6875 6.804688 -8.925781 7.421875 -9.40625 C 8.035156 -9.882812 8.34375 -10.617188 8.34375 -11.609375 C 8.34375 -12.378906 8.066406 -13.019531 7.515625 -13.53125 C 6.960938 -14.039062 6.269531 -14.296875 5.4375 -14.296875 C 4.59375 -14.296875 3.847656 -14.007812 3.203125 -13.4375 C 2.835938 -13.09375 2.453125 -12.921875 2.046875 -12.921875 C 1.753906 -12.921875 1.492188 -13.015625 1.265625 -13.203125 C 0.867188 -13.515625 0.671875 -13.878906 0.671875 -14.296875 C 0.671875 -14.640625 0.816406 -14.957031 1.109375 -15.25 C 1.660156 -15.820312 2.304688 -16.265625 3.046875 -16.578125 C 3.796875 -16.898438 4.59375 -17.0625 5.4375 -17.0625 C 6.476562 -17.0625 7.429688 -16.820312 8.296875 -16.34375 C 9.160156 -15.863281 9.84375 -15.203125 10.34375 -14.359375 C 10.851562 -13.523438 11.109375 -12.609375 11.109375 -11.609375 C 11.109375 -10.140625 10.6875 -8.972656 9.84375 -8.109375 C 9 -7.253906 7.875 -6.71875 6.46875 -6.5 C 6.394531 -6.46875 6.359375 -6.429688 6.359375 -6.390625 L 6.359375 -5.53125 C 6.359375 -5.132812 6.226562 -4.800781 5.96875 -4.53125 C 5.707031 -4.257812 5.378906 -4.125 4.984375 -4.125 C 4.578125 -4.125 4.242188 -4.257812 3.984375 -4.53125 C 3.722656 -4.800781 3.59375 -5.132812 3.59375 -5.53125 Z M 4.859375 0 C 4.410156 0 4.066406 -0.117188 3.828125 -0.359375 C 3.597656 -0.597656 3.484375 -0.941406 3.484375 -1.390625 L 3.484375 -1.78125 C 3.484375 -2.21875 3.597656 -2.554688 3.828125 -2.796875 C 4.066406 -3.035156 4.410156 -3.15625 4.859375 -3.15625 L 5.15625 -3.15625 C 5.601562 -3.15625 5.945312 -3.035156 6.1875 -2.796875 C 6.425781 -2.554688 6.546875 -2.21875 6.546875 -1.78125 L 6.546875 -1.390625 C 6.546875 -0.941406 6.425781 -0.597656 6.1875 -0.359375 C 5.945312 -0.117188 5.601562 0 5.15625 0 Z M 4.859375 0 "/></g></g></g><g fill="#000000" fill-opacity="1"><g transform="translate(78.922226, 91.217614)"><g><path d="M 1.9375 3.09375 C 1.644531 3.09375 1.367188 2.976562 1.109375 2.75 C 0.847656 2.53125 0.71875 2.257812 0.71875 1.9375 C 0.71875 1.75 0.765625 1.566406 0.859375 1.390625 L 10.203125 -17.765625 C 10.316406 -17.984375 10.460938 -18.148438 10.640625 -18.265625 C 10.816406 -18.390625 11.007812 -18.453125 11.21875 -18.453125 C 11.507812 -18.453125 11.78125 -18.34375 12.03125 -18.125 C 12.289062 -17.90625 12.421875 -17.632812 12.421875 -17.3125 C 12.421875 -17.125 12.375 -16.9375 12.28125 -16.75 L 2.953125 2.390625 C 2.835938 2.609375 2.691406 2.78125 2.515625 2.90625 C 2.347656 3.03125 2.15625 3.09375 1.9375 3.09375 Z M 1.9375 3.09375 "/></g></g></g><g fill="#000000" fill-opacity="1"><g transform="translate(92.008933, 91.217614)"><g><path d="M 10.96875 -6.828125 C 11.15625 -6.710938 11.296875 -6.554688 11.390625 -6.359375 C 11.484375 -6.171875 11.53125 -5.972656 11.53125 -5.765625 C 11.53125 -5.535156 11.484375 -5.328125 11.390625 -5.140625 C 11.296875 -4.953125 11.15625 -4.804688 10.96875 -4.703125 L 3.484375 -0.390625 C 3.035156 -0.128906 2.679688 0 2.421875 0 C 2.109375 0 1.816406 -0.148438 1.546875 -0.453125 C 1.285156 -0.753906 1.15625 -1.066406 1.15625 -1.390625 C 1.15625 -1.734375 1.320312 -2.007812 1.65625 -2.21875 L 7.796875 -5.765625 L 1.6875 -9.40625 C 1.34375 -9.59375 1.171875 -9.890625 1.171875 -10.296875 C 1.171875 -10.648438 1.296875 -10.972656 1.546875 -11.265625 C 1.804688 -11.554688 2.066406 -11.703125 2.328125 -11.703125 C 2.484375 -11.703125 2.660156 -11.648438 2.859375 -11.546875 C 3.054688 -11.453125 3.265625 -11.34375 3.484375 -11.21875 Z M 10.96875 -6.828125 "/></g></g></g></svg>