<svg xmlns="http://www.w3.org/2000/svg" xmlns:xlink="http://www.w3.org/1999/xlink" width="192" zoomAndPan="magnify" viewBox="0 0 144 143.999998" height="192" preserveAspectRatio="xMidYMid meet" version="1.0"><defs><g/><clipPath id="252ab16d60"><path d="M 72 0 C 32.234375 0 0 32.234375 0 72 C 0 111.765625 32.234375 144 72 144 C 111.765625 144 144 111.765625 144 72 C 144 32.234375 111.765625 0 72 0 " clip-rule="nonzero"/></clipPath></defs><g clip-path="url(#252ab16d60)"><rect x="-14.4" width="172.8" fill="#f0d2c9" y="-14.4" height="172.799997" fill-opacity="1"/><path stroke-linecap="butt" transform="matrix(0.75, 0, 0, 0.75, 0.00000125, 0.000002)" fill="none" stroke-linejoin="miter" d="M 96.000004 -0.00000266667 C 42.979168 -0.00000266667 -0.00000166667 42.979167 -0.00000166667 96.000003 C -0.00000166667 149.020839 42.979168 192.000009 96.000004 192.000009 C 149.02084 192.000009 192.00001 149.020839 192.00001 96.000003 C 192.00001 42.979167 149.02084 -0.00000266667 96.000004 -0.00000266667 " stroke="#000000" stroke-width="2" stroke-opacity="1" stroke-miterlimit="4"/></g><g fill="#000000" fill-opacity="1"><g transform="translate(26.761501, 81.425612)"><g><path d="M 10.421875 -2.3125 C 10.753906 -2.125 10.921875 -1.820312 10.921875 -1.40625 C 10.921875 -1.050781 10.789062 -0.726562 10.53125 -0.4375 C 10.28125 -0.144531 10.023438 0 9.765625 0 C 9.617188 0 9.441406 -0.046875 9.234375 -0.140625 C 9.035156 -0.242188 8.832031 -0.359375 8.625 -0.484375 L 1.125 -4.890625 C 0.945312 -4.992188 0.8125 -5.140625 0.71875 -5.328125 C 0.625 -5.523438 0.578125 -5.734375 0.578125 -5.953125 C 0.578125 -6.179688 0.625 -6.382812 0.71875 -6.5625 C 0.8125 -6.75 0.945312 -6.894531 1.125 -7 L 8.625 -11.3125 C 9.0625 -11.570312 9.414062 -11.703125 9.6875 -11.703125 C 9.988281 -11.703125 10.273438 -11.550781 10.546875 -11.25 C 10.816406 -10.957031 10.953125 -10.648438 10.953125 -10.328125 C 10.953125 -9.972656 10.78125 -9.695312 10.4375 -9.5 L 4.3125 -5.953125 Z M 10.421875 -2.3125 "/></g></g></g><g fill="#000000" fill-opacity="1"><g transform="translate(38.857487, 81.425612)"><g><path d="M 0.78125 -1.90625 C 0.644531 -2.09375 0.578125 -2.328125 0.578125 -2.609375 C 0.578125 -3.003906 0.773438 -3.34375 1.171875 -3.625 C 1.390625 -3.757812 1.613281 -3.828125 1.84375 -3.828125 C 2.164062 -3.828125 2.472656 -3.679688 2.765625 -3.390625 C 3.222656 -2.910156 3.703125 -2.554688 4.203125 -2.328125 C 4.703125 -2.097656 5.304688 -1.984375 6.015625 -1.984375 C 7.210938 -2.023438 7.8125 -2.476562 7.8125 -3.34375 C 7.8125 -3.789062 7.609375 -4.128906 7.203125 -4.359375 C 6.796875 -4.585938 6.160156 -4.816406 5.296875 -5.046875 C 4.410156 -5.296875 3.6875 -5.539062 3.125 -5.78125 C 2.5625 -6.03125 2.078125 -6.40625 1.671875 -6.90625 C 1.265625 -7.40625 1.0625 -8.078125 1.0625 -8.921875 C 1.0625 -9.660156 1.269531 -10.300781 1.6875 -10.84375 C 2.113281 -11.382812 2.664062 -11.804688 3.34375 -12.109375 C 4.03125 -12.410156 4.757812 -12.5625 5.53125 -12.5625 C 6.3125 -12.5625 7.09375 -12.414062 7.875 -12.125 C 8.664062 -11.832031 9.28125 -11.398438 9.71875 -10.828125 C 9.925781 -10.585938 10.03125 -10.3125 10.03125 -10 C 10.03125 -9.644531 9.882812 -9.351562 9.59375 -9.125 C 9.375 -8.957031 9.125 -8.875 8.84375 -8.875 C 8.507812 -8.875 8.234375 -8.984375 8.015625 -9.203125 C 7.742188 -9.535156 7.390625 -9.800781 6.953125 -10 C 6.515625 -10.195312 6.019531 -10.296875 5.46875 -10.296875 C 4.289062 -10.296875 3.703125 -9.875 3.703125 -9.03125 C 3.703125 -8.695312 3.8125 -8.425781 4.03125 -8.21875 C 4.25 -8.007812 4.519531 -7.847656 4.84375 -7.734375 C 5.175781 -7.617188 5.644531 -7.476562 6.25 -7.3125 C 7.070312 -7.070312 7.757812 -6.828125 8.3125 -6.578125 C 8.875 -6.335938 9.34375 -5.960938 9.71875 -5.453125 C 10.101562 -4.953125 10.296875 -4.285156 10.296875 -3.453125 C 10.296875 -2.703125 10.070312 -2.046875 9.625 -1.484375 C 9.1875 -0.921875 8.617188 -0.492188 7.921875 -0.203125 C 7.222656 0.0859375 6.503906 0.234375 5.765625 0.234375 C 4.742188 0.234375 3.796875 0.0664062 2.921875 -0.265625 C 2.046875 -0.609375 1.332031 -1.15625 0.78125 -1.90625 Z M 0.78125 -1.90625 "/></g></g></g><g fill="#000000" fill-opacity="1"><g transform="translate(49.962758, 81.425612)"><g><path d="M 11.75 -2.421875 C 12.039062 -2.109375 12.1875 -1.765625 12.1875 -1.390625 C 12.1875 -1.003906 12.035156 -0.675781 11.734375 -0.40625 C 11.441406 -0.144531 11.125 -0.015625 10.78125 -0.015625 C 10.382812 -0.015625 10.046875 -0.171875 9.765625 -0.484375 L 5.625 -4.859375 L 4.5 -3.828125 L 4.5 -1.40625 C 4.5 -1.007812 4.363281 -0.675781 4.09375 -0.40625 C 3.832031 -0.132812 3.503906 0 3.109375 0 C 2.710938 0 2.382812 -0.132812 2.125 -0.40625 C 1.863281 -0.675781 1.734375 -1.007812 1.734375 -1.40625 L 1.734375 -15.65625 C 1.734375 -16.050781 1.863281 -16.382812 2.125 -16.65625 C 2.382812 -16.925781 2.710938 -17.0625 3.109375 -17.0625 C 3.503906 -17.0625 3.832031 -16.925781 4.09375 -16.65625 C 4.363281 -16.382812 4.5 -16.050781 4.5 -15.65625 L 4.5 -7.125 L 9.421875 -11.890625 C 9.710938 -12.179688 10.050781 -12.328125 10.4375 -12.328125 C 10.78125 -12.328125 11.082031 -12.1875 11.34375 -11.90625 C 11.613281 -11.625 11.75 -11.335938 11.75 -11.046875 C 11.75 -10.671875 11.566406 -10.320312 11.203125 -10 L 7.71875 -6.796875 Z M 11.75 -2.421875 "/></g></g></g><g fill="#000000" fill-opacity="1"><g transform="translate(63.072505, 81.425612)"><g><path d="M 4.109375 -1.40625 C 4.109375 -1.007812 3.972656 -0.675781 3.703125 -0.40625 C 3.441406 -0.132812 3.113281 0 2.71875 0 C 2.320312 0 1.992188 -0.132812 1.734375 -0.40625 C 1.472656 -0.675781 1.34375 -1.007812 1.34375 -1.40625 L 1.34375 -10.921875 C 1.34375 -11.328125 1.472656 -11.660156 1.734375 -11.921875 C 1.992188 -12.191406 2.320312 -12.328125 2.71875 -12.328125 C 3.113281 -12.328125 3.441406 -12.191406 3.703125 -11.921875 C 3.972656 -11.660156 4.109375 -11.328125 4.109375 -10.921875 Z M 2.703125 -13.828125 C 2.179688 -13.828125 1.8125 -13.910156 1.59375 -14.078125 C 1.375 -14.242188 1.265625 -14.546875 1.265625 -14.984375 L 1.265625 -15.421875 C 1.265625 -15.847656 1.378906 -16.144531 1.609375 -16.3125 C 1.847656 -16.488281 2.21875 -16.578125 2.71875 -16.578125 C 3.257812 -16.578125 3.632812 -16.488281 3.84375 -16.3125 C 4.0625 -16.144531 4.171875 -15.847656 4.171875 -15.421875 L 4.171875 -14.984375 C 4.171875 -14.535156 4.054688 -14.226562 3.828125 -14.0625 C 3.609375 -13.90625 3.234375 -13.828125 2.703125 -13.828125 Z M 2.703125 -13.828125 "/></g></g></g><g fill="#000000" fill-opacity="1"><g transform="translate(68.509942, 81.425612)"><g><path d="M 4.5 -1.40625 C 4.5 -1.007812 4.363281 -0.675781 4.09375 -0.40625 C 3.820312 -0.132812 3.488281 0 3.09375 0 C 2.707031 0 2.382812 -0.132812 2.125 -0.40625 C 1.863281 -0.675781 1.734375 -1.007812 1.734375 -1.40625 L 1.734375 -15.65625 C 1.734375 -16.050781 1.863281 -16.382812 2.125 -16.65625 C 2.394531 -16.925781 2.734375 -17.0625 3.140625 -17.0625 C 3.515625 -17.0625 3.832031 -16.925781 4.09375 -16.65625 C 4.363281 -16.382812 4.5 -16.050781 4.5 -15.65625 Z M 4.5 -1.40625 "/></g></g></g><g fill="#000000" fill-opacity="1"><g transform="translate(74.730735, 81.425612)"><g><path d="M 4.5 -1.40625 C 4.5 -1.007812 4.363281 -0.675781 4.09375 -0.40625 C 3.820312 -0.132812 3.488281 0 3.09375 0 C 2.707031 0 2.382812 -0.132812 2.125 -0.40625 C 1.863281 -0.675781 1.734375 -1.007812 1.734375 -1.40625 L 1.734375 -15.65625 C 1.734375 -16.050781 1.863281 -16.382812 2.125 -16.65625 C 2.394531 -16.925781 2.734375 -17.0625 3.140625 -17.0625 C 3.515625 -17.0625 3.832031 -16.925781 4.09375 -16.65625 C 4.363281 -16.382812 4.5 -16.050781 4.5 -15.65625 Z M 4.5 -1.40625 "/></g></g></g><g fill="#000000" fill-opacity="1"><g transform="translate(80.951528, 81.425612)"><g><path d="M 0.78125 -1.90625 C 0.644531 -2.09375 0.578125 -2.328125 0.578125 -2.609375 C 0.578125 -3.003906 0.773438 -3.34375 1.171875 -3.625 C 1.390625 -3.757812 1.613281 -3.828125 1.84375 -3.828125 C 2.164062 -3.828125 2.472656 -3.679688 2.765625 -3.390625 C 3.222656 -2.910156 3.703125 -2.554688 4.203125 -2.328125 C 4.703125 -2.097656 5.304688 -1.984375 6.015625 -1.984375 C 7.210938 -2.023438 7.8125 -2.476562 7.8125 -3.34375 C 7.8125 -3.789062 7.609375 -4.128906 7.203125 -4.359375 C 6.796875 -4.585938 6.160156 -4.816406 5.296875 -5.046875 C 4.410156 -5.296875 3.6875 -5.539062 3.125 -5.78125 C 2.5625 -6.03125 2.078125 -6.40625 1.671875 -6.90625 C 1.265625 -7.40625 1.0625 -8.078125 1.0625 -8.921875 C 1.0625 -9.660156 1.269531 -10.300781 1.6875 -10.84375 C 2.113281 -11.382812 2.664062 -11.804688 3.34375 -12.109375 C 4.03125 -12.410156 4.757812 -12.5625 5.53125 -12.5625 C 6.3125 -12.5625 7.09375 -12.414062 7.875 -12.125 C 8.664062 -11.832031 9.28125 -11.398438 9.71875 -10.828125 C 9.925781 -10.585938 10.03125 -10.3125 10.03125 -10 C 10.03125 -9.644531 9.882812 -9.351562 9.59375 -9.125 C 9.375 -8.957031 9.125 -8.875 8.84375 -8.875 C 8.507812 -8.875 8.234375 -8.984375 8.015625 -9.203125 C 7.742188 -9.535156 7.390625 -9.800781 6.953125 -10 C 6.515625 -10.195312 6.019531 -10.296875 5.46875 -10.296875 C 4.289062 -10.296875 3.703125 -9.875 3.703125 -9.03125 C 3.703125 -8.695312 3.8125 -8.425781 4.03125 -8.21875 C 4.25 -8.007812 4.519531 -7.847656 4.84375 -7.734375 C 5.175781 -7.617188 5.644531 -7.476562 6.25 -7.3125 C 7.070312 -7.070312 7.757812 -6.828125 8.3125 -6.578125 C 8.875 -6.335938 9.34375 -5.960938 9.71875 -5.453125 C 10.101562 -4.953125 10.296875 -4.285156 10.296875 -3.453125 C 10.296875 -2.703125 10.070312 -2.046875 9.625 -1.484375 C 9.1875 -0.921875 8.617188 -0.492188 7.921875 -0.203125 C 7.222656 0.0859375 6.503906 0.234375 5.765625 0.234375 C 4.742188 0.234375 3.796875 0.0664062 2.921875 -0.265625 C 2.046875 -0.609375 1.332031 -1.15625 0.78125 -1.90625 Z M 0.78125 -1.90625 "/></g></g></g><g fill="#000000" fill-opacity="1"><g transform="translate(92.056799, 81.425612)"><g><path d="M 1.9375 3.09375 C 1.644531 3.09375 1.367188 2.976562 1.109375 2.75 C 0.847656 2.53125 0.71875 2.257812 0.71875 1.9375 C 0.71875 1.75 0.765625 1.566406 0.859375 1.390625 L 10.203125 -17.765625 C 10.316406 -17.984375 10.460938 -18.148438 10.640625 -18.265625 C 10.816406 -18.390625 11.007812 -18.453125 11.21875 -18.453125 C 11.507812 -18.453125 11.78125 -18.34375 12.03125 -18.125 C 12.289062 -17.90625 12.421875 -17.632812 12.421875 -17.3125 C 12.421875 -17.125 12.375 -16.9375 12.28125 -16.75 L 2.953125 2.390625 C 2.835938 2.609375 2.691406 2.78125 2.515625 2.90625 C 2.347656 3.03125 2.15625 3.09375 1.9375 3.09375 Z M 1.9375 3.09375 "/></g></g></g><g fill="#000000" fill-opacity="1"><g transform="translate(105.143501, 81.425612)"><g><path d="M 10.96875 -6.828125 C 11.15625 -6.710938 11.296875 -6.554688 11.390625 -6.359375 C 11.484375 -6.171875 11.53125 -5.972656 11.53125 -5.765625 C 11.53125 -5.535156 11.484375 -5.328125 11.390625 -5.140625 C 11.296875 -4.953125 11.15625 -4.804688 10.96875 -4.703125 L 3.484375 -0.390625 C 3.035156 -0.128906 2.679688 0 2.421875 0 C 2.109375 0 1.816406 -0.148438 1.546875 -0.453125 C 1.285156 -0.753906 1.15625 -1.066406 1.15625 -1.390625 C 1.15625 -1.734375 1.320312 -2.007812 1.65625 -2.21875 L 7.796875 -5.765625 L 1.6875 -9.40625 C 1.34375 -9.59375 1.171875 -9.890625 1.171875 -10.296875 C 1.171875 -10.648438 1.296875 -10.972656 1.546875 -11.265625 C 1.804688 -11.554688 2.066406 -11.703125 2.328125 -11.703125 C 2.484375 -11.703125 2.660156 -11.648438 2.859375 -11.546875 C 3.054688 -11.453125 3.265625 -11.34375 3.484375 -11.21875 Z M 10.96875 -6.828125 "/></g></g></g></svg>