<svg xmlns="http://www.w3.org/2000/svg" xmlns:xlink="http://www.w3.org/1999/xlink" width="500" zoomAndPan="magnify" viewBox="0 0 375 187.499995" height="250" preserveAspectRatio="xMidYMid meet" version="1.0"><defs><filter x="0%" y="0%" width="100%" height="100%" id="d59e6ad997"><feColorMatrix values="0 0 0 0 1 0 0 0 0 1 0 0 0 0 1 0 0 0 1 0" color-interpolation-filters="sRGB"/></filter><g/><mask id="adc7790061"><g filter="url(#d59e6ad997)"><rect x="-37.5" width="450" fill="#000000" y="-18.749999" height="224.999994" fill-opacity="0.8863"/></g></mask><clipPath id="c1fd74cb7e"><path d="M 0.925781 0.816406 L 352 0.816406 L 352 146.328125 L 0.925781 146.328125 Z M 0.925781 0.816406 " clip-rule="nonzero"/></clipPath><clipPath id="a50af35635"><path d="M 18.128906 0.816406 L 334.871094 0.816406 C 339.433594 0.816406 343.808594 2.632812 347.035156 5.855469 C 350.261719 9.082031 352.074219 13.460938 352.074219 18.023438 L 352.074219 129.058594 C 352.074219 133.621094 350.261719 138 347.035156 141.226562 C 343.808594 144.453125 339.433594 146.265625 334.871094 146.265625 L 18.128906 146.265625 C 13.566406 146.265625 9.191406 144.453125 5.964844 141.226562 C 2.738281 138 0.925781 133.621094 0.925781 129.058594 L 0.925781 18.023438 C 0.925781 13.460938 2.738281 9.082031 5.964844 5.855469 C 9.191406 2.632812 13.566406 0.816406 18.128906 0.816406 " clip-rule="nonzero"/></clipPath><clipPath id="06bd85b940"><rect x="0" width="354" y="0" height="147"/></clipPath></defs><g mask="url(#adc7790061)"><g transform="matrix(1, 0, 0, 1, 11, 22)"><g clip-path="url(#06bd85b940)"><g clip-path="url(#c1fd74cb7e)"><g clip-path="url(#a50af35635)"><path fill="#f0d2c9" d="M 0.925781 0.816406 L 351.554688 0.816406 L 351.554688 146.328125 L 0.925781 146.328125 Z M 0.925781 0.816406 " fill-opacity="1" fill-rule="nonzero"/></g></g></g></g></g><g fill="#000000" fill-opacity="1"><g transform="translate(59.766405, 76.745338)"><g><path d="M 27.046875 -5.984375 C 27.921875 -5.503906 28.359375 -4.726562 28.359375 -3.65625 C 28.359375 -2.738281 28.03125 -1.898438 27.375 -1.140625 C 26.71875 -0.378906 26.050781 0 25.375 0 C 24.976562 0 24.519531 -0.128906 24 -0.390625 C 23.476562 -0.648438 22.9375 -0.9375 22.375 -1.25 L 2.9375 -12.6875 C 2.457031 -12.96875 2.097656 -13.359375 1.859375 -13.859375 C 1.617188 -14.359375 1.5 -14.882812 1.5 -15.4375 C 1.5 -16.039062 1.617188 -16.582031 1.859375 -17.0625 C 2.097656 -17.539062 2.457031 -17.914062 2.9375 -18.1875 L 22.375 -29.390625 C 23.53125 -30.066406 24.453125 -30.40625 25.140625 -30.40625 C 25.929688 -30.40625 26.675781 -30.015625 27.375 -29.234375 C 28.070312 -28.453125 28.421875 -27.644531 28.421875 -26.8125 C 28.421875 -25.894531 27.984375 -25.175781 27.109375 -24.65625 L 11.1875 -15.4375 Z M 27.046875 -5.984375 "/></g></g></g><g fill="#000000" fill-opacity="1"><g transform="translate(91.182592, 76.745338)"><g><path d="M 32.609375 -16.75 C 32.578125 -15.789062 32.203125 -15.015625 31.484375 -14.421875 C 30.765625 -13.828125 29.925781 -13.53125 28.96875 -13.53125 L 9.21875 -13.53125 C 9.695312 -11.175781 10.789062 -9.328125 12.5 -7.984375 C 14.21875 -6.648438 16.15625 -5.984375 18.3125 -5.984375 C 19.945312 -5.984375 21.222656 -6.128906 22.140625 -6.421875 C 23.054688 -6.722656 23.785156 -7.046875 24.328125 -7.390625 C 24.867188 -7.734375 25.238281 -7.960938 25.4375 -8.078125 C 26.15625 -8.441406 26.832031 -8.625 27.46875 -8.625 C 28.300781 -8.625 29.015625 -8.320312 29.609375 -7.71875 C 30.210938 -7.125 30.515625 -6.425781 30.515625 -5.625 C 30.515625 -4.550781 29.957031 -3.570312 28.84375 -2.6875 C 27.726562 -1.769531 26.234375 -0.992188 24.359375 -0.359375 C 22.484375 0.273438 20.585938 0.59375 18.671875 0.59375 C 15.316406 0.59375 12.390625 -0.101562 9.890625 -1.5 C 7.398438 -2.894531 5.476562 -4.816406 4.125 -7.265625 C 2.769531 -9.722656 2.09375 -12.488281 2.09375 -15.5625 C 2.09375 -18.988281 2.8125 -22 4.25 -24.59375 C 5.6875 -27.1875 7.582031 -29.171875 9.9375 -30.546875 C 12.289062 -31.921875 14.800781 -32.609375 17.46875 -32.609375 C 20.101562 -32.609375 22.585938 -31.890625 24.921875 -30.453125 C 27.253906 -29.023438 29.117188 -27.09375 30.515625 -24.65625 C 31.910156 -22.21875 32.609375 -19.582031 32.609375 -16.75 Z M 17.46875 -26.03125 C 12.84375 -26.03125 10.113281 -23.859375 9.28125 -19.515625 L 24.953125 -19.515625 L 24.953125 -19.921875 C 24.796875 -21.597656 23.976562 -23.035156 22.5 -24.234375 C 21.019531 -25.429688 19.34375 -26.03125 17.46875 -26.03125 Z M 17.46875 -26.03125 "/></g></g></g><g fill="#000000" fill-opacity="1"><g transform="translate(125.890009, 76.745338)"><g><path d="M 11.671875 -3.65625 C 11.671875 -2.613281 11.320312 -1.742188 10.625 -1.046875 C 9.925781 -0.347656 9.054688 0 8.015625 0 C 7.015625 0 6.175781 -0.347656 5.5 -1.046875 C 4.820312 -1.742188 4.484375 -2.613281 4.484375 -3.65625 L 4.484375 -40.640625 C 4.484375 -41.671875 4.832031 -42.535156 5.53125 -43.234375 C 6.226562 -43.929688 7.097656 -44.28125 8.140625 -44.28125 C 9.140625 -44.28125 9.976562 -43.929688 10.65625 -43.234375 C 11.332031 -42.535156 11.671875 -41.671875 11.671875 -40.640625 Z M 11.671875 -3.65625 "/></g></g></g><g fill="#000000" fill-opacity="1"><g transform="translate(142.046905, 76.745338)"><g><path d="M 10.65625 -3.65625 C 10.65625 -2.613281 10.316406 -1.742188 9.640625 -1.046875 C 8.960938 -0.347656 8.101562 0 7.0625 0 C 6.019531 0 5.160156 -0.347656 4.484375 -1.046875 C 3.804688 -1.742188 3.46875 -2.613281 3.46875 -3.65625 L 3.46875 -28.359375 C 3.46875 -29.398438 3.804688 -30.269531 4.484375 -30.96875 C 5.160156 -31.664062 6.019531 -32.015625 7.0625 -32.015625 C 8.101562 -32.015625 8.960938 -31.664062 9.640625 -30.96875 C 10.316406 -30.269531 10.65625 -29.398438 10.65625 -28.359375 Z M 7 -35.90625 C 5.644531 -35.90625 4.6875 -36.125 4.125 -36.5625 C 3.570312 -37 3.296875 -37.78125 3.296875 -38.90625 L 3.296875 -40.03125 C 3.296875 -41.15625 3.59375 -41.9375 4.1875 -42.375 C 4.789062 -42.8125 5.75 -43.03125 7.0625 -43.03125 C 8.457031 -43.03125 9.429688 -42.8125 9.984375 -42.375 C 10.546875 -41.9375 10.828125 -41.15625 10.828125 -40.03125 L 10.828125 -38.90625 C 10.828125 -37.738281 10.535156 -36.945312 9.953125 -36.53125 C 9.378906 -36.113281 8.394531 -35.90625 7 -35.90625 Z M 7 -35.90625 "/></g></g></g><g fill="#000000" fill-opacity="1"><g transform="translate(156.169237, 76.745338)"><g><path d="M 29.796875 -44.28125 C 30.835938 -44.28125 31.695312 -43.941406 32.375 -43.265625 C 33.050781 -42.585938 33.390625 -41.710938 33.390625 -40.640625 L 33.390625 -3.65625 C 33.390625 -2.613281 33.050781 -1.742188 32.375 -1.046875 C 31.695312 -0.347656 30.835938 0 29.796875 0 C 28.765625 0 27.914062 -0.335938 27.25 -1.015625 C 26.59375 -1.691406 26.25 -2.550781 26.21875 -3.59375 C 25.21875 -2.4375 23.867188 -1.445312 22.171875 -0.625 C 20.472656 0.1875 18.6875 0.59375 16.8125 0.59375 C 14.0625 0.59375 11.566406 -0.113281 9.328125 -1.53125 C 7.097656 -2.945312 5.332031 -4.910156 4.03125 -7.421875 C 2.738281 -9.929688 2.09375 -12.785156 2.09375 -15.984375 C 2.09375 -19.171875 2.726562 -22.03125 4 -24.5625 C 5.28125 -27.09375 7.023438 -29.066406 9.234375 -30.484375 C 11.453125 -31.898438 13.898438 -32.609375 16.578125 -32.609375 C 18.492188 -32.609375 20.285156 -32.257812 21.953125 -31.5625 C 23.628906 -30.863281 25.050781 -29.976562 26.21875 -28.90625 L 26.21875 -40.640625 C 26.21875 -41.671875 26.554688 -42.535156 27.234375 -43.234375 C 27.910156 -43.929688 28.765625 -44.28125 29.796875 -44.28125 Z M 17.71875 -5.984375 C 20.3125 -5.984375 22.425781 -6.929688 24.0625 -8.828125 C 25.695312 -10.722656 26.515625 -13.109375 26.515625 -15.984375 C 26.515625 -18.847656 25.695312 -21.238281 24.0625 -23.15625 C 22.425781 -25.070312 20.3125 -26.03125 17.71875 -26.03125 C 15.164062 -26.03125 13.070312 -25.070312 11.4375 -23.15625 C 9.800781 -21.238281 8.984375 -18.847656 8.984375 -15.984375 C 8.984375 -13.109375 9.789062 -10.722656 11.40625 -8.828125 C 13.019531 -6.929688 15.125 -5.984375 17.71875 -5.984375 Z M 17.71875 -5.984375 "/></g></g></g><g fill="#000000" fill-opacity="1"><g transform="translate(193.449782, 76.745338)"><g><path d="M 10.65625 -3.65625 C 10.65625 -2.613281 10.316406 -1.742188 9.640625 -1.046875 C 8.960938 -0.347656 8.101562 0 7.0625 0 C 6.019531 0 5.160156 -0.347656 4.484375 -1.046875 C 3.804688 -1.742188 3.46875 -2.613281 3.46875 -3.65625 L 3.46875 -28.359375 C 3.46875 -29.398438 3.804688 -30.269531 4.484375 -30.96875 C 5.160156 -31.664062 6.019531 -32.015625 7.0625 -32.015625 C 8.101562 -32.015625 8.960938 -31.664062 9.640625 -30.96875 C 10.316406 -30.269531 10.65625 -29.398438 10.65625 -28.359375 Z M 7 -35.90625 C 5.644531 -35.90625 4.6875 -36.125 4.125 -36.5625 C 3.570312 -37 3.296875 -37.78125 3.296875 -38.90625 L 3.296875 -40.03125 C 3.296875 -41.15625 3.59375 -41.9375 4.1875 -42.375 C 4.789062 -42.8125 5.75 -43.03125 7.0625 -43.03125 C 8.457031 -43.03125 9.429688 -42.8125 9.984375 -42.375 C 10.546875 -41.9375 10.828125 -41.15625 10.828125 -40.03125 L 10.828125 -38.90625 C 10.828125 -37.738281 10.535156 -36.945312 9.953125 -36.53125 C 9.378906 -36.113281 8.394531 -35.90625 7 -35.90625 Z M 7 -35.90625 "/></g></g></g><g fill="#000000" fill-opacity="1"><g transform="translate(207.572114, 76.745338)"><g><path d="M 29.796875 -32.609375 C 30.835938 -32.609375 31.695312 -32.269531 32.375 -31.59375 C 33.050781 -30.914062 33.390625 -30.039062 33.390625 -28.96875 L 33.390625 -3.65625 C 33.390625 -2.613281 33.050781 -1.742188 32.375 -1.046875 C 31.695312 -0.347656 30.835938 0 29.796875 0 C 28.765625 0 27.914062 -0.335938 27.25 -1.015625 C 26.59375 -1.691406 26.25 -2.550781 26.21875 -3.59375 C 25.21875 -2.4375 23.867188 -1.445312 22.171875 -0.625 C 20.472656 0.1875 18.6875 0.59375 16.8125 0.59375 C 14.0625 0.59375 11.566406 -0.113281 9.328125 -1.53125 C 7.097656 -2.945312 5.332031 -4.910156 4.03125 -7.421875 C 2.738281 -9.929688 2.09375 -12.785156 2.09375 -15.984375 C 2.09375 -19.171875 2.726562 -22.03125 4 -24.5625 C 5.28125 -27.09375 7.023438 -29.066406 9.234375 -30.484375 C 11.453125 -31.898438 13.898438 -32.609375 16.578125 -32.609375 C 18.492188 -32.609375 20.285156 -32.257812 21.953125 -31.5625 C 23.628906 -30.863281 25.050781 -29.976562 26.21875 -28.90625 L 26.21875 -28.96875 C 26.21875 -30 26.554688 -30.863281 27.234375 -31.5625 C 27.910156 -32.257812 28.765625 -32.609375 29.796875 -32.609375 Z M 17.71875 -5.984375 C 20.3125 -5.984375 22.425781 -6.929688 24.0625 -8.828125 C 25.695312 -10.722656 26.515625 -13.109375 26.515625 -15.984375 C 26.515625 -18.847656 25.695312 -21.238281 24.0625 -23.15625 C 22.425781 -25.070312 20.3125 -26.03125 17.71875 -26.03125 C 15.164062 -26.03125 13.070312 -25.070312 11.4375 -23.15625 C 9.800781 -21.238281 8.984375 -18.847656 8.984375 -15.984375 C 8.984375 -13.109375 9.789062 -10.722656 11.40625 -8.828125 C 13.019531 -6.929688 15.125 -5.984375 17.71875 -5.984375 Z M 17.71875 -5.984375 "/></g></g></g><g fill="#000000" fill-opacity="1"><g transform="translate(244.85266, 76.745338)"><g><path d="M 21 -32.609375 C 25.070312 -32.609375 27.882812 -31.398438 29.4375 -28.984375 C 31 -26.578125 31.78125 -23.238281 31.78125 -18.96875 L 31.78125 -3.65625 C 31.78125 -2.613281 31.441406 -1.742188 30.765625 -1.046875 C 30.085938 -0.347656 29.226562 0 28.1875 0 C 27.144531 0 26.285156 -0.347656 25.609375 -1.046875 C 24.929688 -1.742188 24.59375 -2.613281 24.59375 -3.65625 L 24.59375 -18.96875 C 24.59375 -21.164062 24.132812 -22.890625 23.21875 -24.140625 C 22.300781 -25.398438 20.722656 -26.03125 18.484375 -26.03125 C 16.171875 -26.03125 14.359375 -25.359375 13.046875 -24.015625 C 11.734375 -22.679688 11.078125 -21 11.078125 -18.96875 L 11.078125 -3.65625 C 11.078125 -2.613281 10.734375 -1.742188 10.046875 -1.046875 C 9.367188 -0.347656 8.515625 0 7.484375 0 C 6.441406 0 5.582031 -0.347656 4.90625 -1.046875 C 4.226562 -1.742188 3.890625 -2.613281 3.890625 -3.65625 L 3.890625 -28.359375 C 3.890625 -29.398438 4.226562 -30.269531 4.90625 -30.96875 C 5.582031 -31.664062 6.441406 -32.015625 7.484375 -32.015625 C 8.515625 -32.015625 9.367188 -31.664062 10.046875 -30.96875 C 10.734375 -30.269531 11.078125 -29.398438 11.078125 -28.359375 L 11.078125 -27.34375 C 12.148438 -28.78125 13.550781 -30.015625 15.28125 -31.046875 C 17.019531 -32.085938 18.925781 -32.609375 21 -32.609375 Z M 21 -32.609375 "/></g></g></g><g fill="#000000" fill-opacity="1"><g transform="translate(280.517534, 76.745338)"><g><path d="M 32.609375 -16.75 C 32.578125 -15.789062 32.203125 -15.015625 31.484375 -14.421875 C 30.765625 -13.828125 29.925781 -13.53125 28.96875 -13.53125 L 9.21875 -13.53125 C 9.695312 -11.175781 10.789062 -9.328125 12.5 -7.984375 C 14.21875 -6.648438 16.15625 -5.984375 18.3125 -5.984375 C 19.945312 -5.984375 21.222656 -6.128906 22.140625 -6.421875 C 23.054688 -6.722656 23.785156 -7.046875 24.328125 -7.390625 C 24.867188 -7.734375 25.238281 -7.960938 25.4375 -8.078125 C 26.15625 -8.441406 26.832031 -8.625 27.46875 -8.625 C 28.300781 -8.625 29.015625 -8.320312 29.609375 -7.71875 C 30.210938 -7.125 30.515625 -6.425781 30.515625 -5.625 C 30.515625 -4.550781 29.957031 -3.570312 28.84375 -2.6875 C 27.726562 -1.769531 26.234375 -0.992188 24.359375 -0.359375 C 22.484375 0.273438 20.585938 0.59375 18.671875 0.59375 C 15.316406 0.59375 12.390625 -0.101562 9.890625 -1.5 C 7.398438 -2.894531 5.476562 -4.816406 4.125 -7.265625 C 2.769531 -9.722656 2.09375 -12.488281 2.09375 -15.5625 C 2.09375 -18.988281 2.8125 -22 4.25 -24.59375 C 5.6875 -27.1875 7.582031 -29.171875 9.9375 -30.546875 C 12.289062 -31.921875 14.800781 -32.609375 17.46875 -32.609375 C 20.101562 -32.609375 22.585938 -31.890625 24.921875 -30.453125 C 27.253906 -29.023438 29.117188 -27.09375 30.515625 -24.65625 C 31.910156 -22.21875 32.609375 -19.582031 32.609375 -16.75 Z M 17.46875 -26.03125 C 12.84375 -26.03125 10.113281 -23.859375 9.28125 -19.515625 L 24.953125 -19.515625 L 24.953125 -19.921875 C 24.796875 -21.597656 23.976562 -23.035156 22.5 -24.234375 C 21.019531 -25.429688 19.34375 -26.03125 17.46875 -26.03125 Z M 17.46875 -26.03125 "/></g></g></g><g fill="#000000" fill-opacity="1"><g transform="translate(16.265224, 127.609697)"><g><path d="M 2.03125 -4.96875 C 1.675781 -5.445312 1.5 -6.046875 1.5 -6.765625 C 1.5 -7.796875 2.015625 -8.671875 3.046875 -9.390625 C 3.609375 -9.753906 4.1875 -9.9375 4.78125 -9.9375 C 5.625 -9.9375 6.425781 -9.554688 7.1875 -8.796875 C 8.382812 -7.554688 9.628906 -6.632812 10.921875 -6.03125 C 12.210938 -5.4375 13.78125 -5.140625 15.625 -5.140625 C 18.726562 -5.265625 20.28125 -6.441406 20.28125 -8.671875 C 20.28125 -9.828125 19.75 -10.703125 18.6875 -11.296875 C 17.632812 -11.898438 15.992188 -12.503906 13.765625 -13.109375 C 11.453125 -13.742188 9.566406 -14.378906 8.109375 -15.015625 C 6.648438 -15.660156 5.390625 -16.628906 4.328125 -17.921875 C 3.273438 -19.222656 2.75 -20.96875 2.75 -23.15625 C 2.75 -25.070312 3.296875 -26.738281 4.390625 -28.15625 C 5.492188 -29.570312 6.929688 -30.664062 8.703125 -31.4375 C 10.484375 -32.21875 12.367188 -32.609375 14.359375 -32.609375 C 16.398438 -32.609375 18.4375 -32.226562 20.46875 -31.46875 C 22.5 -30.71875 24.09375 -29.601562 25.25 -28.125 C 25.769531 -27.488281 26.03125 -26.769531 26.03125 -25.96875 C 26.03125 -25.050781 25.648438 -24.296875 24.890625 -23.703125 C 24.335938 -23.265625 23.703125 -23.046875 22.984375 -23.046875 C 22.097656 -23.046875 21.378906 -23.320312 20.828125 -23.875 C 20.109375 -24.75 19.179688 -25.445312 18.046875 -25.96875 C 16.910156 -26.488281 15.625 -26.75 14.1875 -26.75 C 11.15625 -26.75 9.640625 -25.648438 9.640625 -23.453125 C 9.640625 -22.578125 9.914062 -21.867188 10.46875 -21.328125 C 11.03125 -20.796875 11.738281 -20.378906 12.59375 -20.078125 C 13.457031 -19.773438 14.664062 -19.40625 16.21875 -18.96875 C 18.375 -18.375 20.171875 -17.753906 21.609375 -17.109375 C 23.046875 -16.472656 24.257812 -15.492188 25.25 -14.171875 C 26.25 -12.859375 26.75 -11.128906 26.75 -8.984375 C 26.75 -7.023438 26.171875 -5.316406 25.015625 -3.859375 C 23.859375 -2.398438 22.367188 -1.289062 20.546875 -0.53125 C 18.734375 0.21875 16.875 0.59375 14.96875 0.59375 C 12.332031 0.59375 9.875 0.15625 7.59375 -0.71875 C 5.320312 -1.59375 3.46875 -3.007812 2.03125 -4.96875 Z M 2.03125 -4.96875 "/></g></g></g><g fill="#000000" fill-opacity="1"><g transform="translate(45.108282, 127.609697)"><g><path d="M 24.296875 -6.578125 C 25.253906 -6.578125 26.050781 -6.269531 26.6875 -5.65625 C 27.320312 -5.039062 27.640625 -4.253906 27.640625 -3.296875 C 27.640625 -2.378906 27.320312 -1.597656 26.6875 -0.953125 C 26.050781 -0.316406 25.253906 0 24.296875 0 L 5.03125 0 C 4.113281 0 3.34375 -0.328125 2.71875 -0.984375 C 2.101562 -1.640625 1.796875 -2.347656 1.796875 -3.109375 C 1.796875 -3.785156 1.875 -4.351562 2.03125 -4.8125 C 2.195312 -5.269531 2.5 -5.800781 2.9375 -6.40625 L 17.171875 -24.828125 L 5.5625 -24.828125 C 4.601562 -24.828125 3.804688 -25.144531 3.171875 -25.78125 C 2.535156 -26.425781 2.21875 -27.226562 2.21875 -28.1875 C 2.21875 -29.101562 2.535156 -29.867188 3.171875 -30.484375 C 3.804688 -31.109375 4.601562 -31.421875 5.5625 -31.421875 L 24 -31.421875 C 24.875 -31.421875 25.617188 -31.109375 26.234375 -30.484375 C 26.859375 -29.867188 27.171875 -29.101562 27.171875 -28.1875 C 27.171875 -27.582031 27.109375 -27.070312 26.984375 -26.65625 C 26.867188 -26.238281 26.59375 -25.75 26.15625 -25.1875 L 11.796875 -6.578125 Z M 24.296875 -6.578125 "/></g></g></g><g fill="#000000" fill-opacity="1"><g transform="translate(74.071025, 127.609697)"><g><path d="M 10.65625 -3.65625 C 10.65625 -2.613281 10.316406 -1.742188 9.640625 -1.046875 C 8.960938 -0.347656 8.101562 0 7.0625 0 C 6.019531 0 5.160156 -0.347656 4.484375 -1.046875 C 3.804688 -1.742188 3.46875 -2.613281 3.46875 -3.65625 L 3.46875 -28.359375 C 3.46875 -29.398438 3.804688 -30.269531 4.484375 -30.96875 C 5.160156 -31.664062 6.019531 -32.015625 7.0625 -32.015625 C 8.101562 -32.015625 8.960938 -31.664062 9.640625 -30.96875 C 10.316406 -30.269531 10.65625 -29.398438 10.65625 -28.359375 Z M 7 -35.90625 C 5.644531 -35.90625 4.6875 -36.125 4.125 -36.5625 C 3.570312 -37 3.296875 -37.78125 3.296875 -38.90625 L 3.296875 -40.03125 C 3.296875 -41.15625 3.59375 -41.9375 4.1875 -42.375 C 4.789062 -42.8125 5.75 -43.03125 7.0625 -43.03125 C 8.457031 -43.03125 9.429688 -42.8125 9.984375 -42.375 C 10.546875 -41.9375 10.828125 -41.15625 10.828125 -40.03125 L 10.828125 -38.90625 C 10.828125 -37.738281 10.535156 -36.945312 9.953125 -36.53125 C 9.378906 -36.113281 8.394531 -35.90625 7 -35.90625 Z M 7 -35.90625 "/></g></g></g><g fill="#000000" fill-opacity="1"><g transform="translate(88.193357, 127.609697)"><g><path d="M 40.8125 -32.609375 C 44.757812 -32.609375 47.488281 -31.398438 49 -28.984375 C 50.519531 -26.578125 51.28125 -23.238281 51.28125 -18.96875 L 51.28125 -3.65625 C 51.28125 -2.613281 50.941406 -1.742188 50.265625 -1.046875 C 49.585938 -0.347656 48.734375 0 47.703125 0 C 46.660156 0 45.800781 -0.347656 45.125 -1.046875 C 44.445312 -1.742188 44.109375 -2.613281 44.109375 -3.65625 L 44.109375 -18.96875 C 44.109375 -21.164062 43.675781 -22.890625 42.8125 -24.140625 C 41.957031 -25.398438 40.453125 -26.03125 38.296875 -26.03125 C 36.066406 -26.03125 34.320312 -25.359375 33.0625 -24.015625 C 31.800781 -22.679688 31.171875 -21 31.171875 -18.96875 L 31.171875 -3.65625 C 31.171875 -2.613281 30.832031 -1.742188 30.15625 -1.046875 C 29.476562 -0.347656 28.625 0 27.59375 0 C 26.550781 0 25.691406 -0.347656 25.015625 -1.046875 C 24.335938 -1.742188 24 -2.613281 24 -3.65625 L 24 -18.96875 C 24 -21.164062 23.566406 -22.890625 22.703125 -24.140625 C 21.847656 -25.398438 20.34375 -26.03125 18.1875 -26.03125 C 15.957031 -26.03125 14.210938 -25.359375 12.953125 -24.015625 C 11.703125 -22.679688 11.078125 -21 11.078125 -18.96875 L 11.078125 -3.65625 C 11.078125 -2.613281 10.734375 -1.742188 10.046875 -1.046875 C 9.367188 -0.347656 8.515625 0 7.484375 0 C 6.441406 0 5.582031 -0.347656 4.90625 -1.046875 C 4.226562 -1.742188 3.890625 -2.613281 3.890625 -3.65625 L 3.890625 -28.359375 C 3.890625 -29.398438 4.226562 -30.269531 4.90625 -30.96875 C 5.582031 -31.664062 6.441406 -32.015625 7.484375 -32.015625 C 8.515625 -32.015625 9.367188 -31.664062 10.046875 -30.96875 C 10.734375 -30.269531 11.078125 -29.398438 11.078125 -28.359375 L 11.078125 -27.40625 C 12.148438 -28.84375 13.515625 -30.066406 15.171875 -31.078125 C 16.828125 -32.097656 18.671875 -32.609375 20.703125 -32.609375 C 25.734375 -32.609375 28.945312 -30.414062 30.34375 -26.03125 C 31.257812 -27.707031 32.644531 -29.222656 34.5 -30.578125 C 36.351562 -31.929688 38.457031 -32.609375 40.8125 -32.609375 Z M 40.8125 -32.609375 "/></g></g></g><g fill="#000000" fill-opacity="1"><g transform="translate(143.366175, 127.609697)"><g><path d="M 29.796875 -32.609375 C 30.835938 -32.609375 31.695312 -32.269531 32.375 -31.59375 C 33.050781 -30.914062 33.390625 -30.039062 33.390625 -28.96875 L 33.390625 -3.65625 C 33.390625 -2.613281 33.050781 -1.742188 32.375 -1.046875 C 31.695312 -0.347656 30.835938 0 29.796875 0 C 28.765625 0 27.914062 -0.335938 27.25 -1.015625 C 26.59375 -1.691406 26.25 -2.550781 26.21875 -3.59375 C 25.21875 -2.4375 23.867188 -1.445312 22.171875 -0.625 C 20.472656 0.1875 18.6875 0.59375 16.8125 0.59375 C 14.0625 0.59375 11.566406 -0.113281 9.328125 -1.53125 C 7.097656 -2.945312 5.332031 -4.910156 4.03125 -7.421875 C 2.738281 -9.929688 2.09375 -12.785156 2.09375 -15.984375 C 2.09375 -19.171875 2.726562 -22.03125 4 -24.5625 C 5.28125 -27.09375 7.023438 -29.066406 9.234375 -30.484375 C 11.453125 -31.898438 13.898438 -32.609375 16.578125 -32.609375 C 18.492188 -32.609375 20.285156 -32.257812 21.953125 -31.5625 C 23.628906 -30.863281 25.050781 -29.976562 26.21875 -28.90625 L 26.21875 -28.96875 C 26.21875 -30 26.554688 -30.863281 27.234375 -31.5625 C 27.910156 -32.257812 28.765625 -32.609375 29.796875 -32.609375 Z M 17.71875 -5.984375 C 20.3125 -5.984375 22.425781 -6.929688 24.0625 -8.828125 C 25.695312 -10.722656 26.515625 -13.109375 26.515625 -15.984375 C 26.515625 -18.847656 25.695312 -21.238281 24.0625 -23.15625 C 22.425781 -25.070312 20.3125 -26.03125 17.71875 -26.03125 C 15.164062 -26.03125 13.070312 -25.070312 11.4375 -23.15625 C 9.800781 -21.238281 8.984375 -18.847656 8.984375 -15.984375 C 8.984375 -13.109375 9.789062 -10.722656 11.40625 -8.828125 C 13.019531 -6.929688 15.125 -5.984375 17.71875 -5.984375 Z M 17.71875 -5.984375 "/></g></g></g><g fill="#000000" fill-opacity="1"><g transform="translate(180.646721, 127.609697)"><g><path d="M 21 -32.609375 C 25.070312 -32.609375 27.882812 -31.398438 29.4375 -28.984375 C 31 -26.578125 31.78125 -23.238281 31.78125 -18.96875 L 31.78125 -3.65625 C 31.78125 -2.613281 31.441406 -1.742188 30.765625 -1.046875 C 30.085938 -0.347656 29.226562 0 28.1875 0 C 27.144531 0 26.285156 -0.347656 25.609375 -1.046875 C 24.929688 -1.742188 24.59375 -2.613281 24.59375 -3.65625 L 24.59375 -18.96875 C 24.59375 -21.164062 24.132812 -22.890625 23.21875 -24.140625 C 22.300781 -25.398438 20.722656 -26.03125 18.484375 -26.03125 C 16.171875 -26.03125 14.359375 -25.359375 13.046875 -24.015625 C 11.734375 -22.679688 11.078125 -21 11.078125 -18.96875 L 11.078125 -3.65625 C 11.078125 -2.613281 10.734375 -1.742188 10.046875 -1.046875 C 9.367188 -0.347656 8.515625 0 7.484375 0 C 6.441406 0 5.582031 -0.347656 4.90625 -1.046875 C 4.226562 -1.742188 3.890625 -2.613281 3.890625 -3.65625 L 3.890625 -28.359375 C 3.890625 -29.398438 4.226562 -30.269531 4.90625 -30.96875 C 5.582031 -31.664062 6.441406 -32.015625 7.484375 -32.015625 C 8.515625 -32.015625 9.367188 -31.664062 10.046875 -30.96875 C 10.734375 -30.269531 11.078125 -29.398438 11.078125 -28.359375 L 11.078125 -27.34375 C 12.148438 -28.78125 13.550781 -30.015625 15.28125 -31.046875 C 17.019531 -32.085938 18.925781 -32.609375 21 -32.609375 Z M 21 -32.609375 "/></g></g></g><g fill="#000000" fill-opacity="1"><g transform="translate(216.311572, 127.609697)"><g><path d="M 2.03125 -4.96875 C 1.675781 -5.445312 1.5 -6.046875 1.5 -6.765625 C 1.5 -7.796875 2.015625 -8.671875 3.046875 -9.390625 C 3.609375 -9.753906 4.1875 -9.9375 4.78125 -9.9375 C 5.625 -9.9375 6.425781 -9.554688 7.1875 -8.796875 C 8.382812 -7.554688 9.628906 -6.632812 10.921875 -6.03125 C 12.210938 -5.4375 13.78125 -5.140625 15.625 -5.140625 C 18.726562 -5.265625 20.28125 -6.441406 20.28125 -8.671875 C 20.28125 -9.828125 19.75 -10.703125 18.6875 -11.296875 C 17.632812 -11.898438 15.992188 -12.503906 13.765625 -13.109375 C 11.453125 -13.742188 9.566406 -14.378906 8.109375 -15.015625 C 6.648438 -15.660156 5.390625 -16.628906 4.328125 -17.921875 C 3.273438 -19.222656 2.75 -20.96875 2.75 -23.15625 C 2.75 -25.070312 3.296875 -26.738281 4.390625 -28.15625 C 5.492188 -29.570312 6.929688 -30.664062 8.703125 -31.4375 C 10.484375 -32.21875 12.367188 -32.609375 14.359375 -32.609375 C 16.398438 -32.609375 18.4375 -32.226562 20.46875 -31.46875 C 22.5 -30.71875 24.09375 -29.601562 25.25 -28.125 C 25.769531 -27.488281 26.03125 -26.769531 26.03125 -25.96875 C 26.03125 -25.050781 25.648438 -24.296875 24.890625 -23.703125 C 24.335938 -23.265625 23.703125 -23.046875 22.984375 -23.046875 C 22.097656 -23.046875 21.378906 -23.320312 20.828125 -23.875 C 20.109375 -24.75 19.179688 -25.445312 18.046875 -25.96875 C 16.910156 -26.488281 15.625 -26.75 14.1875 -26.75 C 11.15625 -26.75 9.640625 -25.648438 9.640625 -23.453125 C 9.640625 -22.578125 9.914062 -21.867188 10.46875 -21.328125 C 11.03125 -20.796875 11.738281 -20.378906 12.59375 -20.078125 C 13.457031 -19.773438 14.664062 -19.40625 16.21875 -18.96875 C 18.375 -18.375 20.171875 -17.753906 21.609375 -17.109375 C 23.046875 -16.472656 24.257812 -15.492188 25.25 -14.171875 C 26.25 -12.859375 26.75 -11.128906 26.75 -8.984375 C 26.75 -7.023438 26.171875 -5.316406 25.015625 -3.859375 C 23.859375 -2.398438 22.367188 -1.289062 20.546875 -0.53125 C 18.734375 0.21875 16.875 0.59375 14.96875 0.59375 C 12.332031 0.59375 9.875 0.15625 7.59375 -0.71875 C 5.320312 -1.59375 3.46875 -3.007812 2.03125 -4.96875 Z M 2.03125 -4.96875 "/></g></g></g><g fill="#000000" fill-opacity="1"><g transform="translate(245.154631, 127.609697)"><g><path d="M 30.515625 -6.28125 C 31.273438 -5.488281 31.65625 -4.59375 31.65625 -3.59375 C 31.65625 -2.59375 31.265625 -1.753906 30.484375 -1.078125 C 29.710938 -0.398438 28.882812 -0.0625 28 -0.0625 C 26.96875 -0.0625 26.09375 -0.457031 25.375 -1.25 L 14.609375 -12.625 L 11.671875 -9.9375 L 11.671875 -3.65625 C 11.671875 -2.613281 11.332031 -1.742188 10.65625 -1.046875 C 9.976562 -0.347656 9.117188 0 8.078125 0 C 7.035156 0 6.175781 -0.347656 5.5 -1.046875 C 4.820312 -1.742188 4.484375 -2.613281 4.484375 -3.65625 L 4.484375 -40.640625 C 4.484375 -41.671875 4.820312 -42.535156 5.5 -43.234375 C 6.175781 -43.929688 7.035156 -44.28125 8.078125 -44.28125 C 9.117188 -44.28125 9.976562 -43.929688 10.65625 -43.234375 C 11.332031 -42.535156 11.671875 -41.671875 11.671875 -40.640625 L 11.671875 -18.484375 L 24.46875 -30.875 C 25.226562 -31.632812 26.109375 -32.015625 27.109375 -32.015625 C 27.984375 -32.015625 28.769531 -31.644531 29.46875 -30.90625 C 30.164062 -30.164062 30.515625 -29.421875 30.515625 -28.671875 C 30.515625 -27.710938 30.035156 -26.8125 29.078125 -25.96875 L 20.046875 -17.65625 Z M 30.515625 -6.28125 "/></g></g></g><g fill="#000000" fill-opacity="1"><g transform="translate(279.203799, 127.609697)"><g><path d="M 10.65625 -3.65625 C 10.65625 -2.613281 10.316406 -1.742188 9.640625 -1.046875 C 8.960938 -0.347656 8.101562 0 7.0625 0 C 6.019531 0 5.160156 -0.347656 4.484375 -1.046875 C 3.804688 -1.742188 3.46875 -2.613281 3.46875 -3.65625 L 3.46875 -28.359375 C 3.46875 -29.398438 3.804688 -30.269531 4.484375 -30.96875 C 5.160156 -31.664062 6.019531 -32.015625 7.0625 -32.015625 C 8.101562 -32.015625 8.960938 -31.664062 9.640625 -30.96875 C 10.316406 -30.269531 10.65625 -29.398438 10.65625 -28.359375 Z M 7 -35.90625 C 5.644531 -35.90625 4.6875 -36.125 4.125 -36.5625 C 3.570312 -37 3.296875 -37.78125 3.296875 -38.90625 L 3.296875 -40.03125 C 3.296875 -41.15625 3.59375 -41.9375 4.1875 -42.375 C 4.789062 -42.8125 5.75 -43.03125 7.0625 -43.03125 C 8.457031 -43.03125 9.429688 -42.8125 9.984375 -42.375 C 10.546875 -41.9375 10.828125 -41.15625 10.828125 -40.03125 L 10.828125 -38.90625 C 10.828125 -37.738281 10.535156 -36.945312 9.953125 -36.53125 C 9.378906 -36.113281 8.394531 -35.90625 7 -35.90625 Z M 7 -35.90625 "/></g></g></g><g fill="#000000" fill-opacity="1"><g transform="translate(293.326119, 127.609697)"><g><path d="M 5.03125 8.015625 C 4.269531 8.015625 3.550781 7.722656 2.875 7.140625 C 2.195312 6.566406 1.859375 5.863281 1.859375 5.03125 C 1.859375 4.550781 1.976562 4.070312 2.21875 3.59375 L 26.515625 -46.140625 C 26.796875 -46.703125 27.164062 -47.140625 27.625 -47.453125 C 28.082031 -47.773438 28.585938 -47.9375 29.140625 -47.9375 C 29.898438 -47.9375 30.609375 -47.644531 31.265625 -47.0625 C 31.921875 -46.488281 32.25 -45.78125 32.25 -44.9375 C 32.25 -44.457031 32.128906 -43.976562 31.890625 -43.5 L 7.65625 6.21875 C 7.375 6.78125 7.003906 7.21875 6.546875 7.53125 C 6.085938 7.851562 5.582031 8.015625 5.03125 8.015625 Z M 5.03125 8.015625 "/></g></g></g><g fill="#000000" fill-opacity="1"><g transform="translate(327.315434, 127.609697)"><g><path d="M 28.484375 -17.71875 C 28.960938 -17.4375 29.320312 -17.046875 29.5625 -16.546875 C 29.800781 -16.046875 29.921875 -15.519531 29.921875 -14.96875 C 29.921875 -14.363281 29.800781 -13.820312 29.5625 -13.34375 C 29.320312 -12.863281 28.960938 -12.484375 28.484375 -12.203125 L 9.03125 -1.015625 C 7.875 -0.335938 6.957031 0 6.28125 0 C 5.488281 0 4.742188 -0.382812 4.046875 -1.15625 C 3.347656 -1.9375 3 -2.75 3 -3.59375 C 3 -4.507812 3.4375 -5.226562 4.3125 -5.75 L 20.234375 -14.96875 L 4.375 -24.421875 C 3.488281 -24.898438 3.046875 -25.675781 3.046875 -26.75 C 3.046875 -27.664062 3.375 -28.503906 4.03125 -29.265625 C 4.695312 -30.023438 5.367188 -30.40625 6.046875 -30.40625 C 6.441406 -30.40625 6.898438 -30.273438 7.421875 -30.015625 C 7.941406 -29.753906 8.476562 -29.460938 9.03125 -29.140625 Z M 28.484375 -17.71875 "/></g></g></g><g fill="#000000" fill-opacity="1"><g transform="translate(49.519317, 163.027748)"><g><path d="M 11.125 -16.609375 C 11.4375 -16.609375 11.691406 -16.503906 11.890625 -16.296875 C 12.097656 -16.097656 12.203125 -15.84375 12.203125 -15.53125 L 12.203125 -1.078125 C 12.203125 -0.773438 12.097656 -0.519531 11.890625 -0.3125 C 11.691406 -0.101562 11.4375 0 11.125 0 C 10.8125 0 10.554688 -0.0976562 10.359375 -0.296875 C 10.171875 -0.503906 10.078125 -0.765625 10.078125 -1.078125 L 10.078125 -1.703125 C 9.703125 -1.160156 9.171875 -0.703125 8.484375 -0.328125 C 7.804688 0.0351562 7.082031 0.21875 6.3125 0.21875 C 5.289062 0.21875 4.367188 -0.0390625 3.546875 -0.5625 C 2.722656 -1.082031 2.070312 -1.8125 1.59375 -2.75 C 1.113281 -3.6875 0.875 -4.738281 0.875 -5.90625 C 0.875 -7.070312 1.109375 -8.117188 1.578125 -9.046875 C 2.046875 -9.984375 2.691406 -10.710938 3.515625 -11.234375 C 4.335938 -11.765625 5.242188 -12.03125 6.234375 -12.03125 C 7.023438 -12.03125 7.757812 -11.863281 8.4375 -11.53125 C 9.113281 -11.207031 9.660156 -10.78125 10.078125 -10.25 L 10.078125 -15.53125 C 10.078125 -15.84375 10.171875 -16.097656 10.359375 -16.296875 C 10.554688 -16.503906 10.8125 -16.609375 11.125 -16.609375 Z M 6.546875 -1.75 C 7.253906 -1.75 7.878906 -1.925781 8.421875 -2.28125 C 8.972656 -2.644531 9.398438 -3.140625 9.703125 -3.765625 C 10.015625 -4.398438 10.171875 -5.113281 10.171875 -5.90625 C 10.171875 -6.675781 10.015625 -7.378906 9.703125 -8.015625 C 9.398438 -8.648438 8.972656 -9.144531 8.421875 -9.5 C 7.878906 -9.863281 7.253906 -10.046875 6.546875 -10.046875 C 5.847656 -10.046875 5.222656 -9.863281 4.671875 -9.5 C 4.128906 -9.144531 3.703125 -8.648438 3.390625 -8.015625 C 3.085938 -7.378906 2.9375 -6.675781 2.9375 -5.90625 C 2.9375 -5.113281 3.085938 -4.398438 3.390625 -3.765625 C 3.703125 -3.140625 4.128906 -2.644531 4.671875 -2.28125 C 5.222656 -1.925781 5.847656 -1.75 6.546875 -1.75 Z M 6.546875 -1.75 "/></g></g></g><g fill="#000000" fill-opacity="1"><g transform="translate(63.297562, 163.027748)"><g><path d="M 11.921875 -6.328125 C 11.898438 -6.054688 11.785156 -5.828125 11.578125 -5.640625 C 11.367188 -5.453125 11.125 -5.359375 10.84375 -5.359375 L 2.9375 -5.359375 C 3.039062 -4.265625 3.453125 -3.390625 4.171875 -2.734375 C 4.898438 -2.078125 5.789062 -1.75 6.84375 -1.75 C 7.5625 -1.75 8.144531 -1.851562 8.59375 -2.0625 C 9.039062 -2.269531 9.4375 -2.539062 9.78125 -2.875 C 10.007812 -3.007812 10.226562 -3.078125 10.4375 -3.078125 C 10.6875 -3.078125 10.894531 -2.984375 11.0625 -2.796875 C 11.238281 -2.617188 11.328125 -2.410156 11.328125 -2.171875 C 11.328125 -1.859375 11.175781 -1.578125 10.875 -1.328125 C 10.445312 -0.890625 9.875 -0.519531 9.15625 -0.21875 C 8.4375 0.0703125 7.703125 0.21875 6.953125 0.21875 C 5.742188 0.21875 4.675781 -0.03125 3.75 -0.53125 C 2.832031 -1.039062 2.125 -1.75 1.625 -2.65625 C 1.125 -3.570312 0.875 -4.609375 0.875 -5.765625 C 0.875 -7.023438 1.128906 -8.128906 1.640625 -9.078125 C 2.160156 -10.023438 2.84375 -10.753906 3.6875 -11.265625 C 4.53125 -11.773438 5.441406 -12.03125 6.421875 -12.03125 C 7.378906 -12.03125 8.273438 -11.78125 9.109375 -11.28125 C 9.941406 -10.789062 10.613281 -10.109375 11.125 -9.234375 C 11.632812 -8.367188 11.898438 -7.398438 11.921875 -6.328125 Z M 6.421875 -10.046875 C 5.578125 -10.046875 4.847656 -9.8125 4.234375 -9.34375 C 3.628906 -8.875 3.226562 -8.144531 3.03125 -7.15625 L 9.640625 -7.15625 L 9.640625 -7.34375 C 9.566406 -8.132812 9.210938 -8.78125 8.578125 -9.28125 C 7.941406 -9.789062 7.222656 -10.046875 6.421875 -10.046875 Z M 6.421875 -10.046875 "/></g></g></g><g fill="#000000" fill-opacity="1"><g transform="translate(76.088445, 163.027748)"><g><path d="M 0.921875 -1.84375 C 0.785156 -2.050781 0.71875 -2.253906 0.71875 -2.453125 C 0.71875 -2.742188 0.875 -2.992188 1.1875 -3.203125 C 1.332031 -3.304688 1.503906 -3.359375 1.703125 -3.359375 C 1.972656 -3.359375 2.222656 -3.25 2.453125 -3.03125 C 2.898438 -2.519531 3.378906 -2.132812 3.890625 -1.875 C 4.410156 -1.625 5.03125 -1.5 5.75 -1.5 C 6.3125 -1.519531 6.804688 -1.648438 7.234375 -1.890625 C 7.671875 -2.140625 7.890625 -2.539062 7.890625 -3.09375 C 7.890625 -3.601562 7.671875 -3.992188 7.234375 -4.265625 C 6.796875 -4.535156 6.148438 -4.78125 5.296875 -5 C 4.453125 -5.226562 3.753906 -5.460938 3.203125 -5.703125 C 2.648438 -5.953125 2.179688 -6.3125 1.796875 -6.78125 C 1.421875 -7.257812 1.234375 -7.878906 1.234375 -8.640625 C 1.234375 -9.304688 1.421875 -9.894531 1.796875 -10.40625 C 2.179688 -10.914062 2.691406 -11.3125 3.328125 -11.59375 C 3.960938 -11.882812 4.65625 -12.03125 5.40625 -12.03125 C 6.125 -12.03125 6.835938 -11.894531 7.546875 -11.625 C 8.253906 -11.351562 8.835938 -10.941406 9.296875 -10.390625 C 9.472656 -10.179688 9.5625 -9.960938 9.5625 -9.734375 C 9.5625 -9.492188 9.441406 -9.265625 9.203125 -9.046875 C 9.046875 -8.910156 8.859375 -8.84375 8.640625 -8.84375 C 8.367188 -8.84375 8.148438 -8.929688 7.984375 -9.109375 C 7.671875 -9.460938 7.285156 -9.738281 6.828125 -9.9375 C 6.367188 -10.132812 5.863281 -10.234375 5.3125 -10.234375 C 4.75 -10.234375 4.269531 -10.113281 3.875 -9.875 C 3.476562 -9.644531 3.28125 -9.253906 3.28125 -8.703125 C 3.289062 -8.179688 3.515625 -7.789062 3.953125 -7.53125 C 4.398438 -7.28125 5.078125 -7.035156 5.984375 -6.796875 C 6.785156 -6.585938 7.445312 -6.363281 7.96875 -6.125 C 8.488281 -5.882812 8.925781 -5.53125 9.28125 -5.0625 C 9.644531 -4.59375 9.828125 -3.972656 9.828125 -3.203125 C 9.828125 -2.503906 9.625 -1.894531 9.21875 -1.375 C 8.8125 -0.863281 8.28125 -0.46875 7.625 -0.1875 C 6.976562 0.0820312 6.289062 0.21875 5.5625 0.21875 C 4.625 0.21875 3.753906 0.0546875 2.953125 -0.265625 C 2.148438 -0.597656 1.472656 -1.125 0.921875 -1.84375 Z M 0.921875 -1.84375 "/></g></g></g><g fill="#000000" fill-opacity="1"><g transform="translate(86.792387, 163.027748)"><g><path d="M 11.921875 -6.328125 C 11.898438 -6.054688 11.785156 -5.828125 11.578125 -5.640625 C 11.367188 -5.453125 11.125 -5.359375 10.84375 -5.359375 L 2.9375 -5.359375 C 3.039062 -4.265625 3.453125 -3.390625 4.171875 -2.734375 C 4.898438 -2.078125 5.789062 -1.75 6.84375 -1.75 C 7.5625 -1.75 8.144531 -1.851562 8.59375 -2.0625 C 9.039062 -2.269531 9.4375 -2.539062 9.78125 -2.875 C 10.007812 -3.007812 10.226562 -3.078125 10.4375 -3.078125 C 10.6875 -3.078125 10.894531 -2.984375 11.0625 -2.796875 C 11.238281 -2.617188 11.328125 -2.410156 11.328125 -2.171875 C 11.328125 -1.859375 11.175781 -1.578125 10.875 -1.328125 C 10.445312 -0.890625 9.875 -0.519531 9.15625 -0.21875 C 8.4375 0.0703125 7.703125 0.21875 6.953125 0.21875 C 5.742188 0.21875 4.675781 -0.03125 3.75 -0.53125 C 2.832031 -1.039062 2.125 -1.75 1.625 -2.65625 C 1.125 -3.570312 0.875 -4.609375 0.875 -5.765625 C 0.875 -7.023438 1.128906 -8.128906 1.640625 -9.078125 C 2.160156 -10.023438 2.84375 -10.753906 3.6875 -11.265625 C 4.53125 -11.773438 5.441406 -12.03125 6.421875 -12.03125 C 7.378906 -12.03125 8.273438 -11.78125 9.109375 -11.28125 C 9.941406 -10.789062 10.613281 -10.109375 11.125 -9.234375 C 11.632812 -8.367188 11.898438 -7.398438 11.921875 -6.328125 Z M 6.421875 -10.046875 C 5.578125 -10.046875 4.847656 -9.8125 4.234375 -9.34375 C 3.628906 -8.875 3.226562 -8.144531 3.03125 -7.15625 L 9.640625 -7.15625 L 9.640625 -7.34375 C 9.566406 -8.132812 9.210938 -8.78125 8.578125 -9.28125 C 7.941406 -9.789062 7.222656 -10.046875 6.421875 -10.046875 Z M 6.421875 -10.046875 "/></g></g></g><g fill="#000000" fill-opacity="1"><g transform="translate(99.583271, 163.027748)"><g><path d="M 7.578125 -12.03125 C 10.273438 -12.03125 11.625 -10.414062 11.625 -7.1875 L 11.625 -1.078125 C 11.625 -0.773438 11.519531 -0.519531 11.3125 -0.3125 C 11.113281 -0.101562 10.859375 0 10.546875 0 C 10.242188 0 9.988281 -0.101562 9.78125 -0.3125 C 9.582031 -0.519531 9.484375 -0.773438 9.484375 -1.078125 L 9.484375 -7.15625 C 9.484375 -8.039062 9.28125 -8.742188 8.875 -9.265625 C 8.476562 -9.785156 7.820312 -10.046875 6.90625 -10.046875 C 6.3125 -10.046875 5.769531 -9.914062 5.28125 -9.65625 C 4.800781 -9.394531 4.421875 -9.039062 4.140625 -8.59375 C 3.859375 -8.15625 3.71875 -7.675781 3.71875 -7.15625 L 3.71875 -1.078125 C 3.71875 -0.773438 3.617188 -0.519531 3.421875 -0.3125 C 3.222656 -0.101562 2.960938 0 2.640625 0 C 2.328125 0 2.070312 -0.0976562 1.875 -0.296875 C 1.6875 -0.503906 1.59375 -0.765625 1.59375 -1.078125 L 1.59375 -10.6875 C 1.59375 -10.976562 1.691406 -11.226562 1.890625 -11.4375 C 2.097656 -11.644531 2.347656 -11.75 2.640625 -11.75 C 2.960938 -11.75 3.222656 -11.644531 3.421875 -11.4375 C 3.617188 -11.226562 3.71875 -10.976562 3.71875 -10.6875 L 3.71875 -9.890625 C 4.113281 -10.492188 4.65625 -11 5.34375 -11.40625 C 6.039062 -11.820312 6.785156 -12.03125 7.578125 -12.03125 Z M 7.578125 -12.03125 "/></g></g></g><g fill="#000000" fill-opacity="1"><g transform="translate(112.800511, 163.027748)"><g><path d="M 10.5625 -11.875 C 10.851562 -11.875 11.09375 -11.78125 11.28125 -11.59375 C 11.476562 -11.40625 11.578125 -11.179688 11.578125 -10.921875 C 11.578125 -10.785156 11.523438 -10.597656 11.421875 -10.359375 L 7.15625 -0.671875 C 7.0625 -0.472656 6.929688 -0.3125 6.765625 -0.1875 C 6.609375 -0.0703125 6.429688 -0.0078125 6.234375 0 C 5.992188 0.03125 5.769531 -0.0078125 5.5625 -0.125 C 5.363281 -0.25 5.210938 -0.429688 5.109375 -0.671875 L 0.859375 -10.359375 C 0.773438 -10.585938 0.734375 -10.773438 0.734375 -10.921875 C 0.734375 -11.160156 0.832031 -11.378906 1.03125 -11.578125 C 1.226562 -11.773438 1.484375 -11.875 1.796875 -11.875 C 2.015625 -11.875 2.210938 -11.816406 2.390625 -11.703125 C 2.578125 -11.585938 2.722656 -11.421875 2.828125 -11.203125 L 6.21875 -3.328125 L 9.609375 -11.203125 C 9.816406 -11.648438 10.132812 -11.875 10.5625 -11.875 Z M 10.5625 -11.875 "/></g></g></g><g fill="#000000" fill-opacity="1"><g transform="translate(125.097708, 163.027748)"><g><path d="M 12.71875 -5.875 C 12.71875 -4.707031 12.457031 -3.660156 11.9375 -2.734375 C 11.414062 -1.804688 10.703125 -1.082031 9.796875 -0.5625 C 8.890625 -0.0390625 7.890625 0.21875 6.796875 0.21875 C 5.703125 0.21875 4.703125 -0.0390625 3.796875 -0.5625 C 2.898438 -1.082031 2.1875 -1.804688 1.65625 -2.734375 C 1.132812 -3.660156 0.875 -4.707031 0.875 -5.875 C 0.875 -7.039062 1.132812 -8.09375 1.65625 -9.03125 C 2.1875 -9.976562 2.898438 -10.710938 3.796875 -11.234375 C 4.703125 -11.765625 5.703125 -12.03125 6.796875 -12.03125 C 7.890625 -12.03125 8.890625 -11.765625 9.796875 -11.234375 C 10.703125 -10.710938 11.414062 -9.976562 11.9375 -9.03125 C 12.457031 -8.09375 12.71875 -7.039062 12.71875 -5.875 Z M 10.59375 -5.875 C 10.59375 -6.6875 10.421875 -7.410156 10.078125 -8.046875 C 9.742188 -8.679688 9.289062 -9.171875 8.71875 -9.515625 C 8.144531 -9.867188 7.503906 -10.046875 6.796875 -10.046875 C 6.097656 -10.046875 5.457031 -9.867188 4.875 -9.515625 C 4.300781 -9.171875 3.84375 -8.679688 3.5 -8.046875 C 3.164062 -7.410156 3 -6.6875 3 -5.875 C 3 -5.082031 3.164062 -4.375 3.5 -3.75 C 3.84375 -3.125 4.300781 -2.632812 4.875 -2.28125 C 5.457031 -1.925781 6.097656 -1.75 6.796875 -1.75 C 7.503906 -1.75 8.144531 -1.925781 8.71875 -2.28125 C 9.289062 -2.632812 9.742188 -3.125 10.078125 -3.75 C 10.421875 -4.375 10.59375 -5.082031 10.59375 -5.875 Z M 10.59375 -5.875 "/></g></g></g><g fill="#000000" fill-opacity="1"><g transform="translate(138.696426, 163.027748)"><g><path d="M 3.90625 -1.078125 C 3.90625 -0.773438 3.800781 -0.519531 3.59375 -0.3125 C 3.382812 -0.101562 3.128906 0 2.828125 0 C 2.523438 0 2.269531 -0.101562 2.0625 -0.3125 C 1.863281 -0.519531 1.765625 -0.773438 1.765625 -1.078125 L 1.765625 -15.53125 C 1.765625 -15.820312 1.867188 -16.070312 2.078125 -16.28125 C 2.296875 -16.5 2.550781 -16.609375 2.84375 -16.609375 C 3.144531 -16.609375 3.394531 -16.5 3.59375 -16.28125 C 3.800781 -16.070312 3.90625 -15.820312 3.90625 -15.53125 Z M 3.90625 -1.078125 "/></g></g></g><g fill="#000000" fill-opacity="1"><g transform="translate(144.373784, 163.027748)"><g><path d="M 10.5625 -11.875 C 10.851562 -11.875 11.09375 -11.78125 11.28125 -11.59375 C 11.476562 -11.40625 11.578125 -11.179688 11.578125 -10.921875 C 11.578125 -10.785156 11.523438 -10.597656 11.421875 -10.359375 L 7.15625 -0.671875 C 7.0625 -0.472656 6.929688 -0.3125 6.765625 -0.1875 C 6.609375 -0.0703125 6.429688 -0.0078125 6.234375 0 C 5.992188 0.03125 5.769531 -0.0078125 5.5625 -0.125 C 5.363281 -0.25 5.210938 -0.429688 5.109375 -0.671875 L 0.859375 -10.359375 C 0.773438 -10.585938 0.734375 -10.773438 0.734375 -10.921875 C 0.734375 -11.160156 0.832031 -11.378906 1.03125 -11.578125 C 1.226562 -11.773438 1.484375 -11.875 1.796875 -11.875 C 2.015625 -11.875 2.210938 -11.816406 2.390625 -11.703125 C 2.578125 -11.585938 2.722656 -11.421875 2.828125 -11.203125 L 6.21875 -3.328125 L 9.609375 -11.203125 C 9.816406 -11.648438 10.132812 -11.875 10.5625 -11.875 Z M 10.5625 -11.875 "/></g></g></g><g fill="#000000" fill-opacity="1"><g transform="translate(156.670981, 163.027748)"><g><path d="M 11.921875 -6.328125 C 11.898438 -6.054688 11.785156 -5.828125 11.578125 -5.640625 C 11.367188 -5.453125 11.125 -5.359375 10.84375 -5.359375 L 2.9375 -5.359375 C 3.039062 -4.265625 3.453125 -3.390625 4.171875 -2.734375 C 4.898438 -2.078125 5.789062 -1.75 6.84375 -1.75 C 7.5625 -1.75 8.144531 -1.851562 8.59375 -2.0625 C 9.039062 -2.269531 9.4375 -2.539062 9.78125 -2.875 C 10.007812 -3.007812 10.226562 -3.078125 10.4375 -3.078125 C 10.6875 -3.078125 10.894531 -2.984375 11.0625 -2.796875 C 11.238281 -2.617188 11.328125 -2.410156 11.328125 -2.171875 C 11.328125 -1.859375 11.175781 -1.578125 10.875 -1.328125 C 10.445312 -0.890625 9.875 -0.519531 9.15625 -0.21875 C 8.4375 0.0703125 7.703125 0.21875 6.953125 0.21875 C 5.742188 0.21875 4.675781 -0.03125 3.75 -0.53125 C 2.832031 -1.039062 2.125 -1.75 1.625 -2.65625 C 1.125 -3.570312 0.875 -4.609375 0.875 -5.765625 C 0.875 -7.023438 1.128906 -8.128906 1.640625 -9.078125 C 2.160156 -10.023438 2.84375 -10.753906 3.6875 -11.265625 C 4.53125 -11.773438 5.441406 -12.03125 6.421875 -12.03125 C 7.378906 -12.03125 8.273438 -11.78125 9.109375 -11.28125 C 9.941406 -10.789062 10.613281 -10.109375 11.125 -9.234375 C 11.632812 -8.367188 11.898438 -7.398438 11.921875 -6.328125 Z M 6.421875 -10.046875 C 5.578125 -10.046875 4.847656 -9.8125 4.234375 -9.34375 C 3.628906 -8.875 3.226562 -8.144531 3.03125 -7.15625 L 9.640625 -7.15625 L 9.640625 -7.34375 C 9.566406 -8.132812 9.210938 -8.78125 8.578125 -9.28125 C 7.941406 -9.789062 7.222656 -10.046875 6.421875 -10.046875 Z M 6.421875 -10.046875 "/></g></g></g><g fill="#000000" fill-opacity="1"><g transform="translate(169.461864, 163.027748)"><g><path d="M 11.125 -16.609375 C 11.4375 -16.609375 11.691406 -16.503906 11.890625 -16.296875 C 12.097656 -16.097656 12.203125 -15.84375 12.203125 -15.53125 L 12.203125 -1.078125 C 12.203125 -0.773438 12.097656 -0.519531 11.890625 -0.3125 C 11.691406 -0.101562 11.4375 0 11.125 0 C 10.8125 0 10.554688 -0.0976562 10.359375 -0.296875 C 10.171875 -0.503906 10.078125 -0.765625 10.078125 -1.078125 L 10.078125 -1.703125 C 9.703125 -1.160156 9.171875 -0.703125 8.484375 -0.328125 C 7.804688 0.0351562 7.082031 0.21875 6.3125 0.21875 C 5.289062 0.21875 4.367188 -0.0390625 3.546875 -0.5625 C 2.722656 -1.082031 2.070312 -1.8125 1.59375 -2.75 C 1.113281 -3.6875 0.875 -4.738281 0.875 -5.90625 C 0.875 -7.070312 1.109375 -8.117188 1.578125 -9.046875 C 2.046875 -9.984375 2.691406 -10.710938 3.515625 -11.234375 C 4.335938 -11.765625 5.242188 -12.03125 6.234375 -12.03125 C 7.023438 -12.03125 7.757812 -11.863281 8.4375 -11.53125 C 9.113281 -11.207031 9.660156 -10.78125 10.078125 -10.25 L 10.078125 -15.53125 C 10.078125 -15.84375 10.171875 -16.097656 10.359375 -16.296875 C 10.554688 -16.503906 10.8125 -16.609375 11.125 -16.609375 Z M 6.546875 -1.75 C 7.253906 -1.75 7.878906 -1.925781 8.421875 -2.28125 C 8.972656 -2.644531 9.398438 -3.140625 9.703125 -3.765625 C 10.015625 -4.398438 10.171875 -5.113281 10.171875 -5.90625 C 10.171875 -6.675781 10.015625 -7.378906 9.703125 -8.015625 C 9.398438 -8.648438 8.972656 -9.144531 8.421875 -9.5 C 7.878906 -9.863281 7.253906 -10.046875 6.546875 -10.046875 C 5.847656 -10.046875 5.222656 -9.863281 4.671875 -9.5 C 4.128906 -9.144531 3.703125 -8.648438 3.390625 -8.015625 C 3.085938 -7.378906 2.9375 -6.675781 2.9375 -5.90625 C 2.9375 -5.113281 3.085938 -4.398438 3.390625 -3.765625 C 3.703125 -3.140625 4.128906 -2.644531 4.671875 -2.28125 C 5.222656 -1.925781 5.847656 -1.75 6.546875 -1.75 Z M 6.546875 -1.75 "/></g></g></g><g fill="#000000" fill-opacity="1"><g transform="translate(183.240108, 163.027748)"><g><path d="M 12.71875 -5.875 C 12.71875 -4.707031 12.457031 -3.660156 11.9375 -2.734375 C 11.414062 -1.804688 10.703125 -1.082031 9.796875 -0.5625 C 8.890625 -0.0390625 7.890625 0.21875 6.796875 0.21875 C 5.703125 0.21875 4.703125 -0.0390625 3.796875 -0.5625 C 2.898438 -1.082031 2.1875 -1.804688 1.65625 -2.734375 C 1.132812 -3.660156 0.875 -4.707031 0.875 -5.875 C 0.875 -7.039062 1.132812 -8.09375 1.65625 -9.03125 C 2.1875 -9.976562 2.898438 -10.710938 3.796875 -11.234375 C 4.703125 -11.765625 5.703125 -12.03125 6.796875 -12.03125 C 7.890625 -12.03125 8.890625 -11.765625 9.796875 -11.234375 C 10.703125 -10.710938 11.414062 -9.976562 11.9375 -9.03125 C 12.457031 -8.09375 12.71875 -7.039062 12.71875 -5.875 Z M 10.59375 -5.875 C 10.59375 -6.6875 10.421875 -7.410156 10.078125 -8.046875 C 9.742188 -8.679688 9.289062 -9.171875 8.71875 -9.515625 C 8.144531 -9.867188 7.503906 -10.046875 6.796875 -10.046875 C 6.097656 -10.046875 5.457031 -9.867188 4.875 -9.515625 C 4.300781 -9.171875 3.84375 -8.679688 3.5 -8.046875 C 3.164062 -7.410156 3 -6.6875 3 -5.875 C 3 -5.082031 3.164062 -4.375 3.5 -3.75 C 3.84375 -3.125 4.300781 -2.632812 4.875 -2.28125 C 5.457031 -1.925781 6.097656 -1.75 6.796875 -1.75 C 7.503906 -1.75 8.144531 -1.925781 8.71875 -2.28125 C 9.289062 -2.632812 9.742188 -3.125 10.078125 -3.75 C 10.421875 -4.375 10.59375 -5.082031 10.59375 -5.875 Z M 10.59375 -5.875 "/></g></g></g><g fill="#000000" fill-opacity="1"><g transform="translate(196.838827, 163.027748)"><g><path d="M 7.453125 -12.03125 C 7.835938 -12.03125 8.171875 -11.925781 8.453125 -11.71875 C 8.742188 -11.519531 8.890625 -11.269531 8.890625 -10.96875 C 8.890625 -10.613281 8.796875 -10.34375 8.609375 -10.15625 C 8.421875 -9.96875 8.191406 -9.875 7.921875 -9.875 C 7.785156 -9.875 7.582031 -9.914062 7.3125 -10 C 7 -10.113281 6.753906 -10.171875 6.578125 -10.171875 C 6.109375 -10.171875 5.65625 -10.007812 5.21875 -9.6875 C 4.78125 -9.363281 4.421875 -8.921875 4.140625 -8.359375 C 3.859375 -7.796875 3.71875 -7.171875 3.71875 -6.484375 L 3.71875 -1.078125 C 3.71875 -0.773438 3.617188 -0.519531 3.421875 -0.3125 C 3.222656 -0.101562 2.960938 0 2.640625 0 C 2.328125 0 2.070312 -0.0976562 1.875 -0.296875 C 1.6875 -0.503906 1.59375 -0.765625 1.59375 -1.078125 L 1.59375 -10.6875 C 1.59375 -10.976562 1.691406 -11.226562 1.890625 -11.4375 C 2.097656 -11.644531 2.347656 -11.75 2.640625 -11.75 C 2.960938 -11.75 3.222656 -11.644531 3.421875 -11.4375 C 3.617188 -11.226562 3.71875 -10.976562 3.71875 -10.6875 L 3.71875 -9.53125 C 4.050781 -10.269531 4.546875 -10.863281 5.203125 -11.3125 C 5.859375 -11.769531 6.609375 -12.007812 7.453125 -12.03125 Z M 7.453125 -12.03125 "/></g></g></g><g fill="#000000" fill-opacity="1"><g transform="translate(206.1066, 163.027748)"><g><path d="M 11.125 -11.921875 C 11.4375 -11.921875 11.691406 -11.816406 11.890625 -11.609375 C 12.097656 -11.410156 12.203125 -11.144531 12.203125 -10.8125 L 12.203125 -1.078125 C 12.203125 -0.773438 12.097656 -0.519531 11.890625 -0.3125 C 11.691406 -0.101562 11.4375 0 11.125 0 C 10.8125 0 10.554688 -0.0976562 10.359375 -0.296875 C 10.171875 -0.503906 10.078125 -0.765625 10.078125 -1.078125 L 10.078125 -1.65625 C 9.679688 -1.132812 9.144531 -0.691406 8.46875 -0.328125 C 7.800781 0.0351562 7.082031 0.21875 6.3125 0.21875 C 5.289062 0.21875 4.363281 -0.0390625 3.53125 -0.5625 C 2.695312 -1.082031 2.046875 -1.8125 1.578125 -2.75 C 1.109375 -3.6875 0.875 -4.738281 0.875 -5.90625 C 0.875 -7.070312 1.109375 -8.117188 1.578125 -9.046875 C 2.046875 -9.984375 2.691406 -10.710938 3.515625 -11.234375 C 4.335938 -11.765625 5.242188 -12.03125 6.234375 -12.03125 C 7.023438 -12.03125 7.757812 -11.863281 8.4375 -11.53125 C 9.125 -11.207031 9.671875 -10.789062 10.078125 -10.28125 L 10.078125 -10.8125 C 10.078125 -11.125 10.171875 -11.382812 10.359375 -11.59375 C 10.554688 -11.8125 10.8125 -11.921875 11.125 -11.921875 Z M 6.546875 -1.75 C 7.253906 -1.75 7.878906 -1.925781 8.421875 -2.28125 C 8.972656 -2.644531 9.398438 -3.140625 9.703125 -3.765625 C 10.015625 -4.398438 10.171875 -5.113281 10.171875 -5.90625 C 10.171875 -6.675781 10.015625 -7.375 9.703125 -8 C 9.398438 -8.632812 8.972656 -9.132812 8.421875 -9.5 C 7.878906 -9.863281 7.253906 -10.046875 6.546875 -10.046875 C 5.847656 -10.046875 5.222656 -9.863281 4.671875 -9.5 C 4.128906 -9.144531 3.703125 -8.65625 3.390625 -8.03125 C 3.085938 -7.40625 2.9375 -6.695312 2.9375 -5.90625 C 2.9375 -5.113281 3.085938 -4.398438 3.390625 -3.765625 C 3.703125 -3.140625 4.128906 -2.644531 4.671875 -2.28125 C 5.222656 -1.925781 5.847656 -1.75 6.546875 -1.75 Z M 6.546875 -1.75 "/></g></g></g><g fill="#000000" fill-opacity="1"><g transform="translate(219.884845, 163.027748)"><g/></g></g><g fill="#000000" fill-opacity="1"><g transform="translate(226.100767, 163.027748)"><g><path d="M 6.625 -14.671875 C 6.125 -14.671875 5.757812 -14.519531 5.53125 -14.21875 C 5.300781 -13.925781 5.1875 -13.5625 5.1875 -13.125 L 5.1875 -11.5625 L 7.40625 -11.5625 C 7.707031 -11.5625 7.953125 -11.46875 8.140625 -11.28125 C 8.328125 -11.09375 8.421875 -10.851562 8.421875 -10.5625 C 8.421875 -10.28125 8.328125 -10.050781 8.140625 -9.875 C 7.953125 -9.695312 7.707031 -9.609375 7.40625 -9.609375 L 5.1875 -9.609375 L 5.1875 -1.078125 C 5.1875 -0.773438 5.082031 -0.519531 4.875 -0.3125 C 4.675781 -0.101562 4.421875 0 4.109375 0 C 3.804688 0 3.550781 -0.101562 3.34375 -0.3125 C 3.144531 -0.519531 3.046875 -0.773438 3.046875 -1.078125 L 3.046875 -9.609375 L 1.65625 -9.609375 C 1.375 -9.609375 1.132812 -9.695312 0.9375 -9.875 C 0.75 -10.050781 0.65625 -10.28125 0.65625 -10.5625 C 0.65625 -10.851562 0.75 -11.09375 0.9375 -11.28125 C 1.132812 -11.46875 1.375 -11.5625 1.65625 -11.5625 L 3.046875 -11.5625 L 3.046875 -13.125 C 3.046875 -14.175781 3.382812 -15.007812 4.0625 -15.625 C 4.738281 -16.25 5.6875 -16.5625 6.90625 -16.5625 C 7.414062 -16.5625 7.863281 -16.46875 8.25 -16.28125 C 8.644531 -16.09375 8.84375 -15.8125 8.84375 -15.4375 C 8.84375 -15.15625 8.753906 -14.921875 8.578125 -14.734375 C 8.410156 -14.546875 8.207031 -14.453125 7.96875 -14.453125 C 7.90625 -14.453125 7.738281 -14.484375 7.46875 -14.546875 C 7.144531 -14.628906 6.863281 -14.671875 6.625 -14.671875 Z M 6.625 -14.671875 "/></g></g></g><g fill="#000000" fill-opacity="1"><g transform="translate(234.852414, 163.027748)"><g><path d="M 7.453125 -12.03125 C 7.835938 -12.03125 8.171875 -11.925781 8.453125 -11.71875 C 8.742188 -11.519531 8.890625 -11.269531 8.890625 -10.96875 C 8.890625 -10.613281 8.796875 -10.34375 8.609375 -10.15625 C 8.421875 -9.96875 8.191406 -9.875 7.921875 -9.875 C 7.785156 -9.875 7.582031 -9.914062 7.3125 -10 C 7 -10.113281 6.753906 -10.171875 6.578125 -10.171875 C 6.109375 -10.171875 5.65625 -10.007812 5.21875 -9.6875 C 4.78125 -9.363281 4.421875 -8.921875 4.140625 -8.359375 C 3.859375 -7.796875 3.71875 -7.171875 3.71875 -6.484375 L 3.71875 -1.078125 C 3.71875 -0.773438 3.617188 -0.519531 3.421875 -0.3125 C 3.222656 -0.101562 2.960938 0 2.640625 0 C 2.328125 0 2.070312 -0.0976562 1.875 -0.296875 C 1.6875 -0.503906 1.59375 -0.765625 1.59375 -1.078125 L 1.59375 -10.6875 C 1.59375 -10.976562 1.691406 -11.226562 1.890625 -11.4375 C 2.097656 -11.644531 2.347656 -11.75 2.640625 -11.75 C 2.960938 -11.75 3.222656 -11.644531 3.421875 -11.4375 C 3.617188 -11.226562 3.71875 -10.976562 3.71875 -10.6875 L 3.71875 -9.53125 C 4.050781 -10.269531 4.546875 -10.863281 5.203125 -11.3125 C 5.859375 -11.769531 6.609375 -12.007812 7.453125 -12.03125 Z M 7.453125 -12.03125 "/></g></g></g><g fill="#000000" fill-opacity="1"><g transform="translate(244.120188, 163.027748)"><g><path d="M 12.71875 -5.875 C 12.71875 -4.707031 12.457031 -3.660156 11.9375 -2.734375 C 11.414062 -1.804688 10.703125 -1.082031 9.796875 -0.5625 C 8.890625 -0.0390625 7.890625 0.21875 6.796875 0.21875 C 5.703125 0.21875 4.703125 -0.0390625 3.796875 -0.5625 C 2.898438 -1.082031 2.1875 -1.804688 1.65625 -2.734375 C 1.132812 -3.660156 0.875 -4.707031 0.875 -5.875 C 0.875 -7.039062 1.132812 -8.09375 1.65625 -9.03125 C 2.1875 -9.976562 2.898438 -10.710938 3.796875 -11.234375 C 4.703125 -11.765625 5.703125 -12.03125 6.796875 -12.03125 C 7.890625 -12.03125 8.890625 -11.765625 9.796875 -11.234375 C 10.703125 -10.710938 11.414062 -9.976562 11.9375 -9.03125 C 12.457031 -8.09375 12.71875 -7.039062 12.71875 -5.875 Z M 10.59375 -5.875 C 10.59375 -6.6875 10.421875 -7.410156 10.078125 -8.046875 C 9.742188 -8.679688 9.289062 -9.171875 8.71875 -9.515625 C 8.144531 -9.867188 7.503906 -10.046875 6.796875 -10.046875 C 6.097656 -10.046875 5.457031 -9.867188 4.875 -9.515625 C 4.300781 -9.171875 3.84375 -8.679688 3.5 -8.046875 C 3.164062 -7.410156 3 -6.6875 3 -5.875 C 3 -5.082031 3.164062 -4.375 3.5 -3.75 C 3.84375 -3.125 4.300781 -2.632812 4.875 -2.28125 C 5.457031 -1.925781 6.097656 -1.75 6.796875 -1.75 C 7.503906 -1.75 8.144531 -1.925781 8.71875 -2.28125 C 9.289062 -2.632812 9.742188 -3.125 10.078125 -3.75 C 10.421875 -4.375 10.59375 -5.082031 10.59375 -5.875 Z M 10.59375 -5.875 "/></g></g></g><g fill="#000000" fill-opacity="1"><g transform="translate(257.718895, 163.027748)"><g><path d="M 7.578125 -12.03125 C 10.273438 -12.03125 11.625 -10.414062 11.625 -7.1875 L 11.625 -1.078125 C 11.625 -0.773438 11.519531 -0.519531 11.3125 -0.3125 C 11.113281 -0.101562 10.859375 0 10.546875 0 C 10.242188 0 9.988281 -0.101562 9.78125 -0.3125 C 9.582031 -0.519531 9.484375 -0.773438 9.484375 -1.078125 L 9.484375 -7.15625 C 9.484375 -8.039062 9.28125 -8.742188 8.875 -9.265625 C 8.476562 -9.785156 7.820312 -10.046875 6.90625 -10.046875 C 6.3125 -10.046875 5.769531 -9.914062 5.28125 -9.65625 C 4.800781 -9.394531 4.421875 -9.039062 4.140625 -8.59375 C 3.859375 -8.15625 3.71875 -7.675781 3.71875 -7.15625 L 3.71875 -1.078125 C 3.71875 -0.773438 3.617188 -0.519531 3.421875 -0.3125 C 3.222656 -0.101562 2.960938 0 2.640625 0 C 2.328125 0 2.070312 -0.0976562 1.875 -0.296875 C 1.6875 -0.503906 1.59375 -0.765625 1.59375 -1.078125 L 1.59375 -10.6875 C 1.59375 -10.976562 1.691406 -11.226562 1.890625 -11.4375 C 2.097656 -11.644531 2.347656 -11.75 2.640625 -11.75 C 2.960938 -11.75 3.222656 -11.644531 3.421875 -11.4375 C 3.617188 -11.226562 3.71875 -10.976562 3.71875 -10.6875 L 3.71875 -9.890625 C 4.113281 -10.492188 4.65625 -11 5.34375 -11.40625 C 6.039062 -11.820312 6.785156 -12.03125 7.578125 -12.03125 Z M 7.578125 -12.03125 "/></g></g></g><g fill="#000000" fill-opacity="1"><g transform="translate(270.936136, 163.027748)"><g><path d="M 4.78125 -9.671875 L 4.78125 -2.984375 C 4.78125 -2.234375 5.113281 -1.859375 5.78125 -1.859375 C 5.894531 -1.859375 6.039062 -1.882812 6.21875 -1.9375 C 6.394531 -1.988281 6.535156 -2.015625 6.640625 -2.015625 C 6.835938 -2.015625 7.003906 -1.929688 7.140625 -1.765625 C 7.273438 -1.609375 7.34375 -1.398438 7.34375 -1.140625 C 7.34375 -0.828125 7.160156 -0.554688 6.796875 -0.328125 C 6.441406 -0.109375 6.039062 0 5.59375 0 C 5.09375 0 4.632812 -0.0507812 4.21875 -0.15625 C 3.8125 -0.257812 3.445312 -0.523438 3.125 -0.953125 C 2.800781 -1.378906 2.640625 -2.023438 2.640625 -2.890625 L 2.640625 -9.671875 L 1.34375 -9.671875 C 1.0625 -9.671875 0.828125 -9.765625 0.640625 -9.953125 C 0.453125 -10.140625 0.359375 -10.375 0.359375 -10.65625 C 0.359375 -10.9375 0.453125 -11.164062 0.640625 -11.34375 C 0.828125 -11.53125 1.0625 -11.625 1.34375 -11.625 L 2.640625 -11.625 L 2.640625 -13.5 C 2.640625 -13.800781 2.738281 -14.054688 2.9375 -14.265625 C 3.144531 -14.472656 3.40625 -14.578125 3.71875 -14.578125 C 4.019531 -14.578125 4.269531 -14.472656 4.46875 -14.265625 C 4.675781 -14.054688 4.78125 -13.800781 4.78125 -13.5 L 4.78125 -11.625 L 6.640625 -11.625 C 6.921875 -11.625 7.15625 -11.53125 7.34375 -11.34375 C 7.53125 -11.15625 7.625 -10.921875 7.625 -10.640625 C 7.625 -10.347656 7.53125 -10.113281 7.34375 -9.9375 C 7.15625 -9.757812 6.921875 -9.671875 6.640625 -9.671875 Z M 4.78125 -9.671875 "/></g></g></g><g fill="#000000" fill-opacity="1"><g transform="translate(279.463391, 163.027748)"><g/></g></g><g fill="#000000" fill-opacity="1"><g transform="translate(285.679313, 163.027748)"><g><path d="M 11.921875 -6.328125 C 11.898438 -6.054688 11.785156 -5.828125 11.578125 -5.640625 C 11.367188 -5.453125 11.125 -5.359375 10.84375 -5.359375 L 2.9375 -5.359375 C 3.039062 -4.265625 3.453125 -3.390625 4.171875 -2.734375 C 4.898438 -2.078125 5.789062 -1.75 6.84375 -1.75 C 7.5625 -1.75 8.144531 -1.851562 8.59375 -2.0625 C 9.039062 -2.269531 9.4375 -2.539062 9.78125 -2.875 C 10.007812 -3.007812 10.226562 -3.078125 10.4375 -3.078125 C 10.6875 -3.078125 10.894531 -2.984375 11.0625 -2.796875 C 11.238281 -2.617188 11.328125 -2.410156 11.328125 -2.171875 C 11.328125 -1.859375 11.175781 -1.578125 10.875 -1.328125 C 10.445312 -0.890625 9.875 -0.519531 9.15625 -0.21875 C 8.4375 0.0703125 7.703125 0.21875 6.953125 0.21875 C 5.742188 0.21875 4.675781 -0.03125 3.75 -0.53125 C 2.832031 -1.039062 2.125 -1.75 1.625 -2.65625 C 1.125 -3.570312 0.875 -4.609375 0.875 -5.765625 C 0.875 -7.023438 1.128906 -8.128906 1.640625 -9.078125 C 2.160156 -10.023438 2.84375 -10.753906 3.6875 -11.265625 C 4.53125 -11.773438 5.441406 -12.03125 6.421875 -12.03125 C 7.378906 -12.03125 8.273438 -11.78125 9.109375 -11.28125 C 9.941406 -10.789062 10.613281 -10.109375 11.125 -9.234375 C 11.632812 -8.367188 11.898438 -7.398438 11.921875 -6.328125 Z M 6.421875 -10.046875 C 5.578125 -10.046875 4.847656 -9.8125 4.234375 -9.34375 C 3.628906 -8.875 3.226562 -8.144531 3.03125 -7.15625 L 9.640625 -7.15625 L 9.640625 -7.34375 C 9.566406 -8.132812 9.210938 -8.78125 8.578125 -9.28125 C 7.941406 -9.789062 7.222656 -10.046875 6.421875 -10.046875 Z M 6.421875 -10.046875 "/></g></g></g><g fill="#000000" fill-opacity="1"><g transform="translate(298.470208, 163.027748)"><g><path d="M 7.578125 -12.03125 C 10.273438 -12.03125 11.625 -10.414062 11.625 -7.1875 L 11.625 -1.078125 C 11.625 -0.773438 11.519531 -0.519531 11.3125 -0.3125 C 11.113281 -0.101562 10.859375 0 10.546875 0 C 10.242188 0 9.988281 -0.101562 9.78125 -0.3125 C 9.582031 -0.519531 9.484375 -0.773438 9.484375 -1.078125 L 9.484375 -7.15625 C 9.484375 -8.039062 9.28125 -8.742188 8.875 -9.265625 C 8.476562 -9.785156 7.820312 -10.046875 6.90625 -10.046875 C 6.3125 -10.046875 5.769531 -9.914062 5.28125 -9.65625 C 4.800781 -9.394531 4.421875 -9.039062 4.140625 -8.59375 C 3.859375 -8.15625 3.71875 -7.675781 3.71875 -7.15625 L 3.71875 -1.078125 C 3.71875 -0.773438 3.617188 -0.519531 3.421875 -0.3125 C 3.222656 -0.101562 2.960938 0 2.640625 0 C 2.328125 0 2.070312 -0.0976562 1.875 -0.296875 C 1.6875 -0.503906 1.59375 -0.765625 1.59375 -1.078125 L 1.59375 -10.6875 C 1.59375 -10.976562 1.691406 -11.226562 1.890625 -11.4375 C 2.097656 -11.644531 2.347656 -11.75 2.640625 -11.75 C 2.960938 -11.75 3.222656 -11.644531 3.421875 -11.4375 C 3.617188 -11.226562 3.71875 -10.976562 3.71875 -10.6875 L 3.71875 -9.890625 C 4.113281 -10.492188 4.65625 -11 5.34375 -11.40625 C 6.039062 -11.820312 6.785156 -12.03125 7.578125 -12.03125 Z M 7.578125 -12.03125 "/></g></g></g><g fill="#000000" fill-opacity="1"><g transform="translate(311.687448, 163.027748)"><g><path d="M 11.125 -16.609375 C 11.4375 -16.609375 11.691406 -16.503906 11.890625 -16.296875 C 12.097656 -16.097656 12.203125 -15.84375 12.203125 -15.53125 L 12.203125 -1.078125 C 12.203125 -0.773438 12.097656 -0.519531 11.890625 -0.3125 C 11.691406 -0.101562 11.4375 0 11.125 0 C 10.8125 0 10.554688 -0.0976562 10.359375 -0.296875 C 10.171875 -0.503906 10.078125 -0.765625 10.078125 -1.078125 L 10.078125 -1.703125 C 9.703125 -1.160156 9.171875 -0.703125 8.484375 -0.328125 C 7.804688 0.0351562 7.082031 0.21875 6.3125 0.21875 C 5.289062 0.21875 4.367188 -0.0390625 3.546875 -0.5625 C 2.722656 -1.082031 2.070312 -1.8125 1.59375 -2.75 C 1.113281 -3.6875 0.875 -4.738281 0.875 -5.90625 C 0.875 -7.070312 1.109375 -8.117188 1.578125 -9.046875 C 2.046875 -9.984375 2.691406 -10.710938 3.515625 -11.234375 C 4.335938 -11.765625 5.242188 -12.03125 6.234375 -12.03125 C 7.023438 -12.03125 7.757812 -11.863281 8.4375 -11.53125 C 9.113281 -11.207031 9.660156 -10.78125 10.078125 -10.25 L 10.078125 -15.53125 C 10.078125 -15.84375 10.171875 -16.097656 10.359375 -16.296875 C 10.554688 -16.503906 10.8125 -16.609375 11.125 -16.609375 Z M 6.546875 -1.75 C 7.253906 -1.75 7.878906 -1.925781 8.421875 -2.28125 C 8.972656 -2.644531 9.398438 -3.140625 9.703125 -3.765625 C 10.015625 -4.398438 10.171875 -5.113281 10.171875 -5.90625 C 10.171875 -6.675781 10.015625 -7.378906 9.703125 -8.015625 C 9.398438 -8.648438 8.972656 -9.144531 8.421875 -9.5 C 7.878906 -9.863281 7.253906 -10.046875 6.546875 -10.046875 C 5.847656 -10.046875 5.222656 -9.863281 4.671875 -9.5 C 4.128906 -9.144531 3.703125 -8.648438 3.390625 -8.015625 C 3.085938 -7.378906 2.9375 -6.675781 2.9375 -5.90625 C 2.9375 -5.113281 3.085938 -4.398438 3.390625 -3.765625 C 3.703125 -3.140625 4.128906 -2.644531 4.671875 -2.28125 C 5.222656 -1.925781 5.847656 -1.75 6.546875 -1.75 Z M 6.546875 -1.75 "/></g></g></g></svg>